<svg width="120" height="100" viewBox="0 0 120 100" fill="none" xmlns="http://www.w3.org/2000/svg">
<path d="M1.93555 48.2198L9.13942 22.2814M1.93555 48.2198L13.4614 61.4769M1.93555 48.2198L24.4123 25.7401M9.13942 22.2814L40.8388 3.54883M9.13942 22.2814L24.4123 25.7401M13.4614 61.4769L30.752 53.9837L40.8388 74.4456M13.4614 61.4769L24.4123 25.7401M24.4123 25.7401L40.8388 3.54883M24.4123 25.7401L38.2443 34.6743M40.8388 3.54883H76.2813M40.8388 3.54883L38.2443 34.6743M76.2813 3.54883L107.69 22.2814M76.2813 3.54883L67.0597 22.2814M38.2443 34.6743L40.8388 74.4456M38.2443 34.6743L30.751 53.9837M38.2443 34.6743L67.0597 22.2814M38.2443 34.6743L52.0762 50.5259L82.0452 48.2198M107.69 22.2814L118.065 48.2198M107.69 22.2814H67.0597M107.69 22.2814L82.0452 48.2198M67.0597 22.2814L82.0452 48.2198M118.065 48.2198L113.454 74.4456L102.792 88.8553M118.065 48.2198L97.0288 64.3588M82.0452 48.2198L67.0597 74.4456M82.0452 48.2198L97.0288 64.3588M102.792 88.8553L94.1468 95.4843L71.9585 88.8553L67.0597 74.4456M102.792 88.8553L97.0288 64.3588M97.0288 64.3588L67.0597 74.4456M67.0597 74.4456H40.8388M67.0597 74.4456L52.0752 50.525" stroke="#1D6FAA" stroke-width="1.93548" stroke-linecap="round"/>
</svg>
