<svg width="120" height="100" viewBox="0 0 120 100" fill="none" xmlns="http://www.w3.org/2000/svg">
<path d="M43.4083 87.9296L26.0269 82.8733M43.4083 87.9296L3.27271 96.1453M43.4083 87.9296L22.5502 71.1787M26.0269 82.8733L22.5491 71.1798L3.27271 96.1453M26.0269 82.8733L3.27271 96.1453M76.5916 87.9296L93.9731 82.8733M76.5916 87.9296L116.727 96.1453M76.5916 87.9296L97.4498 71.1787M93.9731 82.8733L97.4498 71.1787M93.9731 82.8733L116.727 96.1453M116.727 96.1453L97.4498 71.1787M76.5916 12.3984L93.9731 17.4547M76.5916 12.3984L116.727 4.18164M76.5916 12.3984L97.4498 29.1482M93.9731 17.4547L97.4498 29.1482M93.9731 17.4547L116.727 4.18164M116.727 4.18164L97.4498 29.1482M43.4083 12.3984L26.0269 17.4547M43.4083 12.3984L3.27271 4.18164M43.4083 12.3984L22.5491 29.1482M26.0269 17.4547L22.5491 29.1482M26.0269 17.4547L3.27271 4.18164M3.27271 4.18164L22.5491 29.1482M60.7898 61.6987L36.1396 41.1569L60.7898 21.2478L85.7563 41.1569L60.7898 61.6987Z" stroke="#1D6FAA" stroke-width="2.18182" stroke-linecap="round"/>
<path d="M33.9272 56.959C36.456 58.2233 52.8894 70.9695 61.4225 78.1335L88.284 56.959" stroke="#1D6FAA" stroke-width="2.18182" stroke-linecap="round"/>
</svg>
