<svg width="120" height="100" viewBox="0 0 120 100" fill="none" xmlns="http://www.w3.org/2000/svg">
<path d="M44.7475 98.4519L38.3255 86.4115M44.7475 98.4519H30.298L25.0806 86.4115M44.7475 98.4519L55.1833 57.5125M38.3255 86.4115H25.0806M38.3255 86.4115L55.1833 57.5125M25.0806 86.4115L55.1833 57.5125M44.7475 0.917969L38.3255 12.9593M44.7475 0.917969H30.298L25.0806 12.9593M44.7475 0.917969L55.1833 41.8583M38.3255 12.9593H25.0806M38.3255 12.9593L55.1833 41.8583M25.0806 12.9593L55.1833 41.8583M74.8512 98.4528L81.2732 86.4106M74.8512 98.4528H89.3007L94.5182 86.4106M74.8512 98.4528L64.4145 57.5125L81.2732 86.4115H94.5182L64.4154 57.5125M74.8512 0.917969L81.2732 12.9593M74.8512 0.917969H89.3007L94.5182 12.9593M74.8512 0.917969L64.4145 41.8583L81.2732 12.9593M81.2732 12.9593H94.5182M94.5182 12.9593L64.4154 41.8583M9.82827 61.5262L17.0521 49.0831M9.82827 61.5262L2.20166 49.0831L9.82827 36.2391M9.82827 61.5262L49.9659 49.0831M17.0521 49.0831L9.82827 36.2391M17.0521 49.0831H49.9659M9.82827 36.2391L49.9659 49.0831M110.172 36.2391L102.948 48.6822M110.172 36.2391L117.798 48.6822L110.172 61.5262M110.172 36.2391L70.0347 48.6822M102.948 48.6822L110.172 61.5262M102.948 48.6822H70.0347M110.172 61.5262L70.0347 48.6822" stroke="#1D6FAA" stroke-width="1.83486" stroke-linecap="round"/>
</svg>
