<svg xmlns="http://www.w3.org/2000/svg" xml:space="preserve" id="OnlineDataScience" x="0" y="0" enable-background="new 0 0 2500 2500" version="1.1" viewBox="0 0 2500 2500">
  <g fill="#000000" class="color000000 svgShape">
    <g fill="#000000" class="color000000 svgShape">
      <g fill="#000000" class="color000000 svgShape">
        <path d="M2219.57,1117.51c18.86,10.89,18.91,28.53,0.17,39.41l-146.16,84.94c-18.69,10.86-49.13,10.89-67.99,0l-519.25-299.79
				c-18.86-10.89-18.91-28.52-0.22-39.38l146.16-84.94c18.69-10.86,49.18-10.92,68.04-0.03L2219.57,1117.51z" fill="#000000" class="color000000 svgShape"></path>
      </g>
      <g fill="#000000" class="color000000 svgShape">
        <g fill="#000000" class="color000000 svgShape">
          <path fill="#dbe0e4" d="M1754.62,1285.09c-0.34,0-0.67-0.08-0.97-0.26l-156.94-90.61c-7.93-4.58-12.31-10.78-12.32-17.47
					c-0.01-6.64,4.3-12.81,12.14-17.36l269.64-156.7c0.93-0.54,2.12-0.23,2.66,0.7c0.54,0.93,0.23,2.12-0.7,2.66l-269.64,156.7
					c-6.59,3.83-10.21,8.79-10.2,13.98c0.01,5.23,3.69,10.24,10.37,14.09l156.94,90.61c0.93,0.54,1.25,1.73,0.72,2.66
					C1755.94,1284.74,1755.29,1285.09,1754.62,1285.09z" class="colordbdee4 svgShape"></path>
        </g>
      </g>
      <g fill="#000000" class="color000000 svgShape">
        <g fill="#000000" class="color000000 svgShape">
          <path fill="#ffffff" d="M1802.47,1277.88c15.11,8.72,15.2,22.88,0.18,31.6c-15.01,8.72-39.44,8.72-54.55,0
					c-15.11-8.72-15.18-22.87-0.17-31.59C1762.94,1269.16,1787.36,1269.16,1802.47,1277.88z" class="colorffffff svgShape"></path>
          <path fill="#dbe0e4" d="M1775.42,1317.93c-10.23,0-20.47-2.26-28.29-6.77c-7.96-4.59-12.34-10.82-12.36-17.53
					c-0.01-6.67,4.32-12.86,12.18-17.43c15.52-9.02,40.87-9.03,56.5-0.01l0,0c7.96,4.6,12.35,10.83,12.36,17.54
					c0.01,6.67-4.31,12.86-12.17,17.43C1795.88,1315.68,1785.65,1317.93,1775.42,1317.93z M1775.17,1273.27
					c-9.52,0-19.03,2.1-26.26,6.3c-6.62,3.84-10.25,8.83-10.25,14.06c0.01,5.26,3.71,10.29,10.41,14.16
					c14.55,8.4,38.14,8.41,52.6,0.01c6.61-3.84,10.24-8.83,10.23-14.05c-0.01-5.27-3.7-10.3-10.41-14.17
					C1794.23,1275.37,1784.69,1273.27,1775.17,1273.27z" class="colordbdee4 svgShape"></path>
        </g>
        <g fill="#000000" class="color000000 svgShape">
          <path fill="#1d6faa" d="M1775.38,1303.65c-5.89,0-11.59-1.34-15.64-3.68c-3.25-1.88-5.12-4.18-5.12-6.33c0-2.12,1.83-4.4,5.02-6.25
					c4.02-2.33,9.69-3.67,15.58-3.67c5.88,0,11.58,1.34,15.63,3.68c3.25,1.88,5.12,4.19,5.13,6.33c0,2.12-1.83,4.4-5.02,6.25
					C1786.94,1302.31,1781.26,1303.65,1775.38,1303.65z" class="color1fb6ff svgShape"></path>
        </g>
      </g>
      <g fill="#000000" class="color000000 svgShape">
        <circle cx="1654.29" cy="1127.86" r="11.69" fill="#373d42" class="color373b42 svgShape"></circle>
      </g>
      <g fill="#000000" class="color000000 svgShape">
        <path fill="#dbe0e4" d="M522.1,2119.55c-0.33,0-0.67-0.08-0.97-0.26l-206.2-119.05c-7.93-4.58-12.3-10.78-12.31-17.46
				c-0.02-6.64,4.29-12.81,12.13-17.36l305.02-177.26c0.94-0.54,2.12-0.23,2.66,0.7c0.54,0.93,0.23,2.12-0.7,2.66L316.7,1968.78
				c-6.59,3.83-10.2,8.79-10.19,13.98c0.01,5.23,3.68,10.24,10.36,14.09l206.2,119.05c0.93,0.54,1.25,1.73,0.72,2.66
				C523.42,2119.2,522.77,2119.55,522.1,2119.55z" class="colordbdee4 svgShape"></path>
      </g>
      <g fill="#000000" class="color000000 svgShape">
        <g fill="#000000" class="color000000 svgShape">
          <path fill="#ffffff" d="M564.61,2109.31c15.11,8.72,15.2,22.88,0.18,31.6c-15.01,8.72-39.44,8.72-54.55,0s-15.18-22.87-0.17-31.59
					C525.08,2100.59,549.5,2100.59,564.61,2109.31z" class="colorffffff svgShape"></path>
          <path fill="#dbe0e4" d="M537.56,2149.36c-10.23,0-20.47-2.26-28.29-6.77c-7.96-4.59-12.35-10.82-12.36-17.53
					c-0.01-6.67,4.32-12.86,12.17-17.43c15.55-9.02,40.88-9.03,56.5,0c7.96,4.59,12.36,10.83,12.36,17.54
					c0.01,6.67-4.32,12.86-12.17,17.43C558.01,2147.11,547.79,2149.36,537.56,2149.36z M537.31,2104.7c-9.52,0-19.03,2.1-26.26,6.3
					c-6.62,3.84-10.25,8.84-10.24,14.06c0.01,5.26,3.71,10.29,10.41,14.16c14.55,8.4,38.15,8.41,52.59,0
					c6.61-3.84,10.25-8.83,10.24-14.05c-0.01-5.26-3.71-10.3-10.42-14.17C556.37,2106.8,546.83,2104.7,537.31,2104.7z" class="colordbdee4 svgShape"></path>
        </g>
        <g fill="#000000" class="color000000 svgShape">
          <path fill="#1d6faa" d="M537.52,2135.07c-5.89,0-11.59-1.34-15.64-3.68c-3.25-1.88-5.12-4.18-5.12-6.33c0-2.12,1.83-4.4,5.02-6.25
					c4.02-2.33,9.69-3.67,15.58-3.67c5.88,0,11.58,1.34,15.63,3.68c3.25,1.88,5.12,4.19,5.13,6.33c0,2.12-1.83,4.4-5.02,6.25
					C549.08,2133.74,543.4,2135.07,537.52,2135.07z" class="color1fb6ff svgShape"></path>
        </g>
      </g>
      <g fill="#000000" class="color000000 svgShape">
        <circle cx="441.49" cy="1893.9" r="11.69" fill="#373d42" class="color373b42 svgShape"></circle>
      </g>
      <g fill="#000000" class="color000000 svgShape">
        <path fill="#dbe0e4" d="M1572.76,1961.34c-7.11,0-14.22-1.84-20.56-5.53l-274.15-159.32c-0.93-0.54-1.24-1.73-0.7-2.66
				c0.53-0.93,1.72-1.24,2.66-0.7l274.15,159.32c11.47,6.67,25.73,6.67,37.21,0l194.76-113.18c0.93-0.54,2.12-0.23,2.66,0.7
				c0.54,0.93,0.23,2.12-0.7,2.66l-194.76,113.18C1586.99,1959.5,1579.88,1961.34,1572.76,1961.34z" class="colordbdee4 svgShape"></path>
      </g>
      <g fill="#000000" class="color000000 svgShape">
        <circle cx="1433.24" cy="1884.43" r="11.69" fill="#373d42" class="color373b42 svgShape"></circle>
      </g>
      <g fill="#000000" class="color000000 svgShape">
        <g fill="#000000" class="color000000 svgShape">
          <path fill="#ffffff" d="M1838.37,1811.16c15.11,8.72,15.2,22.88,0.18,31.6c-15.01,8.72-39.44,8.72-54.55,0
					c-15.11-8.72-15.18-22.87-0.17-31.59C1798.84,1802.44,1823.26,1802.43,1838.37,1811.16z" class="colorffffff svgShape"></path>
          <path fill="#dbe0e4" d="M1811.32,1851.21c-10.23,0-20.48-2.26-28.29-6.77c-7.96-4.59-12.35-10.82-12.36-17.53
					c-0.01-6.67,4.32-12.86,12.17-17.43c15.53-9.02,40.88-9.02,56.5-0.01c7.96,4.6,12.36,10.83,12.36,17.54
					c0.01,6.67-4.32,12.86-12.17,17.43C1831.77,1848.95,1821.54,1851.21,1811.32,1851.21z M1811.06,1806.55
					c-9.52,0-19.03,2.1-26.26,6.3c-6.62,3.84-10.25,8.84-10.24,14.06c0.01,5.26,3.71,10.29,10.41,14.16
					c14.56,8.41,38.14,8.4,52.59,0.01c6.61-3.84,10.25-8.83,10.24-14.05c-0.01-5.27-3.71-10.3-10.42-14.17
					C1830.12,1808.65,1820.58,1806.55,1811.06,1806.55z" class="colordbdee4 svgShape"></path>
        </g>
        <g fill="#000000" class="color000000 svgShape">
          <path fill="#1d6faa" d="M1811.27,1836.92c-5.89,0-11.59-1.34-15.64-3.68c-3.25-1.88-5.12-4.18-5.12-6.33c0-2.12,1.83-4.4,5.02-6.25
					c4.02-2.33,9.69-3.67,15.58-3.67c5.88,0,11.58,1.34,15.63,3.68c3.25,1.88,5.12,4.19,5.13,6.33c0,2.12-1.83,4.4-5.02,6.25
					C1822.83,1835.58,1817.16,1836.92,1811.27,1836.92z" class="color1fb6ff svgShape"></path>
        </g>
      </g>
      <g fill="#000000" class="color000000 svgShape">
        <g fill="#000000" class="color000000 svgShape">
          <path fill="#ffffff" d="M2232.75,1076.11c18.86,10.89,18.91,28.53,0.17,39.41l-146.16,84.94c-18.69,10.86-49.13,10.89-67.99,0
					l-519.25-299.79c-18.86-10.89-18.91-28.52-0.22-39.38l146.16-84.94c18.69-10.86,49.18-10.92,68.04-0.03L2232.75,1076.11z" class="colorffffff svgShape"></path>
          <path fill="#373d42" d="M2052.81,1210.53c-12.66,0-25.34-2.79-35.01-8.37l-519.25-299.79c-9.77-5.64-15.16-13.26-15.17-21.45
					c-0.01-8.14,5.29-15.71,14.94-21.31l146.16-84.94c19.25-11.18,50.65-11.2,70-0.03l519.25,299.79
					c9.76,5.64,15.14,13.25,15.16,21.43c0.01,8.15-5.31,15.74-14.98,21.36l-146.16,84.94
					C2078.12,1207.74,2065.47,1210.53,2052.81,1210.53z M1679.47,770.11c-11.98,0-23.94,2.64-33.03,7.93l-146.16,84.94
					c-8.4,4.88-13.01,11.25-13,17.94c0.01,6.74,4.71,13.16,13.22,18.07l519.25,299.79c18.28,10.55,47.9,10.54,66.03,0l146.16-84.94
					c8.43-4.89,13.06-11.28,13.05-17.98c-0.01-6.73-4.71-13.15-13.21-18.06l-519.25-299.79
					C1703.4,772.75,1691.43,770.11,1679.47,770.11z" class="color373b42 svgShape"></path>
        </g>
      </g>
      <g fill="#000000" class="color000000 svgShape">
        <g fill="#000000" class="color000000 svgShape">
          <g fill="#000000" class="color000000 svgShape">
            <g fill="#000000" class="color000000 svgShape">
              <polygon fill="#bec7cd" points="1762.1 300.2 1760.45 880.37 1677.64 928.5 1679.29 348.32" class="colorbec4cd svgShape"></polygon>
              <path fill="#373d42" d="M1677.64,930.45c-0.33,0-0.67-0.09-0.97-0.26c-0.6-0.35-0.97-1-0.97-1.69l1.64-580.18
							c0-0.69,0.37-1.33,0.97-1.68l82.81-48.12c0.61-0.35,1.35-0.35,1.96,0c0.6,0.35,0.97,1,0.97,1.69l-1.64,580.18
							c0,0.69-0.37,1.33-0.97,1.68l-82.81,48.12C1678.32,930.36,1677.97,930.45,1677.64,930.45z M1681.23,349.44l-1.64,575.66
							l78.91-45.86l1.64-575.66L1681.23,349.44z" class="color373b42 svgShape"></path>
            </g>
          </g>
          <g fill="#000000" class="color000000 svgShape">
            <g fill="#000000" class="color000000 svgShape">
              <g fill="#000000" class="color000000 svgShape">
                <polygon fill="#f0f3f5" points="1679.29 348.32 1677.64 928.5 1594.35 880.41 1596 300.23" class="colorf0f2f5 svgShape"></polygon>
              </g>
              <g fill="#000000" class="color000000 svgShape">
                <path fill="#373d42" d="M1677.64,930.45c-0.33,0-0.67-0.09-0.97-0.26l-83.28-48.09c-0.6-0.35-0.97-1-0.97-1.69l1.64-580.18
								c0-0.69,0.37-1.34,0.97-1.68c0.61-0.35,1.34-0.34,1.95,0l83.28,48.09c0.6,0.35,0.97,1,0.97,1.69l-1.64,580.18
								c0,0.69-0.37,1.34-0.97,1.68C1678.31,930.36,1677.97,930.45,1677.64,930.45z M1596.31,879.29l79.39,45.84l1.64-575.68
								l-79.39-45.84L1596.31,879.29z" class="color373b42 svgShape"></path>
              </g>
            </g>
          </g>
          <g fill="#000000" class="color000000 svgShape">
            <g fill="#000000" class="color000000 svgShape">
              <polygon fill="#373d42" points="1762.1 300.2 1679.29 348.32 1596 300.23 1678.81 252.11" class="color373b42 svgShape"></polygon>
              <path fill="#373d42" d="M1679.28,350.27c-0.33,0-0.67-0.09-0.97-0.26l-83.28-48.09c-0.6-0.35-0.97-0.99-0.97-1.69
							c0-0.69,0.37-1.34,0.97-1.69l82.81-48.12c0.61-0.35,1.35-0.35,1.96,0l83.28,48.09c0.6,0.35,0.97,0.99,0.97,1.69
							c0,0.69-0.37,1.34-0.97,1.69l-82.81,48.12C1679.96,350.18,1679.62,350.27,1679.28,350.27z M1599.89,300.23l79.39,45.84
							l78.92-45.87l-79.39-45.84L1599.89,300.23z" class="color373b42 svgShape"></path>
            </g>
          </g>
          <g fill="#000000" class="color000000 svgShape">
            <g fill="#000000" class="color000000 svgShape">
              <polygon fill="#1d6faa" points="1719.43 300.21 1679.16 323.6 1638.67 300.23 1678.93 276.83" class="color1fb6ff svgShape"></polygon>
            </g>
          </g>
        </g>
        <g fill="#000000" class="color000000 svgShape">
          <g fill="#000000" class="color000000 svgShape">
            <g fill="#000000" class="color000000 svgShape">
              <polygon fill="#bec7cd" points="1949.97 491.53 1948.32 988.84 1865.51 1036.96 1867.16 539.65" class="colorbec4cd svgShape"></polygon>
              <path fill="#373d42" d="M1865.51,1038.91c-0.33,0-0.67-0.09-0.97-0.26c-0.6-0.35-0.97-1-0.97-1.69l1.64-497.31
							c0-0.69,0.37-1.33,0.97-1.68l82.81-48.12c0.61-0.35,1.35-0.35,1.96,0c0.6,0.35,0.97,1,0.97,1.69l-1.64,497.31
							c0,0.69-0.37,1.33-0.97,1.68l-82.81,48.12C1866.19,1038.83,1865.84,1038.91,1865.51,1038.91z M1869.1,540.78l-1.64,492.79
							l78.91-45.85l1.64-492.79L1869.1,540.78z" class="color373b42 svgShape"></path>
            </g>
          </g>
          <g fill="#000000" class="color000000 svgShape">
            <g fill="#000000" class="color000000 svgShape">
              <g fill="#000000" class="color000000 svgShape">
                <polygon fill="#f0f3f5" points="1867.16 539.65 1865.51 1036.96 1782.29 988.92 1783.93 491.61" class="colorf0f2f5 svgShape"></polygon>
              </g>
              <g fill="#000000" class="color000000 svgShape">
                <path fill="#373d42" d="M1865.51,1038.91c-0.33,0-0.67-0.09-0.97-0.26l-83.22-48.05c-0.6-0.35-0.97-1-0.97-1.69l1.64-497.31
								c0-0.7,0.37-1.34,0.97-1.68c0.61-0.35,1.34-0.34,1.95,0l83.22,48.05c0.6,0.35,0.97,1,0.97,1.69l-1.64,497.31
								c0,0.7-0.37,1.34-0.97,1.68C1866.18,1038.83,1865.84,1038.91,1865.51,1038.91z M1784.23,987.79l79.33,45.8l1.64-492.82
								l-79.33-45.8L1784.23,987.79z" class="color373b42 svgShape"></path>
              </g>
            </g>
          </g>
          <g fill="#000000" class="color000000 svgShape">
            <g fill="#000000" class="color000000 svgShape">
              <polygon fill="#373d42" points="1949.97 491.53 1867.16 539.65 1783.93 491.61 1866.74 443.48" class="color373b42 svgShape"></polygon>
              <path fill="#373d42" d="M1867.15,541.6c-0.33,0-0.67-0.09-0.97-0.26l-83.22-48.05c-0.6-0.35-0.97-0.99-0.97-1.69
							c0-0.69,0.37-1.34,0.97-1.69l82.81-48.12c0.61-0.35,1.35-0.35,1.96,0l83.22,48.05c0.6,0.35,0.97,0.99,0.97,1.69
							c0,0.69-0.37,1.34-0.97,1.69l-82.81,48.12C1867.83,541.52,1867.49,541.6,1867.15,541.6z M1787.82,491.6l79.33,45.8
							l78.92-45.87l-79.33-45.8L1787.82,491.6z" class="color373b42 svgShape"></path>
            </g>
          </g>
          <g fill="#000000" class="color000000 svgShape">
            <g fill="#000000" class="color000000 svgShape">
              <polygon fill="#1d6faa" points="1907.53 490.5 1867.27 513.9 1826.78 490.52 1867.04 467.12" class="color1fb6ff svgShape"></polygon>
            </g>
          </g>
        </g>
        <g fill="#000000" class="color000000 svgShape">
          <g fill="#000000" class="color000000 svgShape">
            <g fill="#000000" class="color000000 svgShape">
              <polygon fill="#bec7cd" points="2137.9 682.9 2136.26 1097.34 2053.44 1145.47 2055.09 731.03" class="colorbec4cd svgShape"></polygon>
              <path fill="#373d42" d="M2053.45,1147.42c-0.33,0-0.67-0.09-0.97-0.26c-0.61-0.35-0.97-1-0.97-1.7l1.64-414.44
							c0-0.69,0.37-1.33,0.97-1.68l82.81-48.12c0.61-0.35,1.35-0.35,1.96,0c0.61,0.35,0.97,1,0.97,1.7l-1.64,414.44
							c0,0.69-0.37,1.33-0.97,1.68l-82.81,48.12C2054.12,1147.33,2053.78,1147.42,2053.45,1147.42z M2057.03,732.15l-1.62,409.92
							l78.91-45.85l1.62-409.92L2057.03,732.15z" class="color373b42 svgShape"></path>
            </g>
          </g>
          <g fill="#000000" class="color000000 svgShape">
            <g fill="#000000" class="color000000 svgShape">
              <g fill="#000000" class="color000000 svgShape">
                <polygon fill="#f0f3f5" points="2055.09 731.03 2053.44 1145.47 1970.22 1097.42 1971.87 682.98" class="colorf0f2f5 svgShape"></polygon>
              </g>
              <g fill="#000000" class="color000000 svgShape">
                <path fill="#373d42" d="M2053.45,1147.42c-0.33,0-0.67-0.09-0.97-0.26l-83.22-48.05c-0.61-0.35-0.97-1-0.97-1.7l1.64-414.44
								c0-0.69,0.37-1.34,0.97-1.68c0.61-0.35,1.34-0.34,1.95,0l83.22,48.05c0.61,0.35,0.97,1,0.97,1.7l-1.64,414.44
								c0,0.69-0.37,1.34-0.97,1.68C2054.12,1147.33,2053.78,1147.42,2053.45,1147.42z M1972.18,1096.3l79.33,45.8l1.62-409.95
								l-79.33-45.8L1972.18,1096.3z" class="color373b42 svgShape"></path>
              </g>
            </g>
          </g>
          <g fill="#000000" class="color000000 svgShape">
            <g fill="#000000" class="color000000 svgShape">
              <polygon fill="#373d42" points="2137.9 682.9 2055.09 731.03 1971.87 682.98 2054.68 634.85" class="color373b42 svgShape"></polygon>
              <path fill="#373d42" d="M2055.09,732.97c-0.33,0-0.67-0.09-0.97-0.26l-83.22-48.05c-0.6-0.35-0.97-0.99-0.97-1.69
							c0-0.69,0.37-1.34,0.97-1.69l82.81-48.12c0.61-0.35,1.35-0.35,1.96,0l83.22,48.05c0.6,0.35,0.97,0.99,0.97,1.69
							c0,0.69-0.37,1.34-0.97,1.69l-82.81,48.12C2055.77,732.89,2055.43,732.97,2055.09,732.97z M1975.76,682.97l79.33,45.8
							l78.92-45.87l-79.33-45.8L1975.76,682.97z" class="color373b42 svgShape"></path>
            </g>
          </g>
          <g fill="#000000" class="color000000 svgShape">
            <g fill="#000000" class="color000000 svgShape">
              <polygon fill="#1d6faa" points="2095.64 680.8 2055.38 704.2 2014.88 680.82 2055.15 657.42" class="color1fb6ff svgShape"></polygon>
            </g>
          </g>
        </g>
      </g>
      <g opacity=".1" fill="#000000" class="color000000 svgShape">
        <g fill="#000000" class="color000000 svgShape">
          <path d="M1588.99,1624.68c29.14,16.82,29.29,44.15,0.34,60.98l-603.48,350.71c-28.99,16.85-76.13,16.82-105.27,0l-607.48-350.73
					c-29.18-16.85-29.34-44.13-0.34-60.98l603.48-350.71c28.95-16.82,76.08-16.85,105.27,0L1588.99,1624.68z" fill="#000000" class="color000000 svgShape"></path>
        </g>
      </g>
      <g fill="#000000" class="color000000 svgShape">
        <g fill="#000000" class="color000000 svgShape">
          <g fill="#000000" class="color000000 svgShape">
            <g fill="#000000" class="color000000 svgShape">
              <g fill="#000000" class="color000000 svgShape">
                <g fill="#000000" class="color000000 svgShape">
                  <path fill="#bec7cd" d="M1645.37,1508.74l-0.22,91.04c0,11.02-7.22,21.96-21.59,30.3l-603.52,350.71
									c-9.53,5.51-20.99,9.23-33.2,11.09c-14.07,2.23-29.11,2.01-43.03-0.75c-10.57-2.01-20.55-5.43-29.03-10.35l-607.46-350.71
									c-14.67-8.49-22.04-19.65-21.96-30.74l0.22-91.04c0,11.17,7.3,22.26,21.96,30.74l607.54,350.71
									c8.34,4.84,18.24,8.26,28.74,10.27c13.92,2.83,28.96,3.05,43.03,0.82c12.28-1.79,23.9-5.51,33.5-11.09l603.44-350.71
									C1638.15,1530.7,1645.37,1519.76,1645.37,1508.74z" class="colorbec4cd svgShape"></path>
                </g>
              </g>
              <g fill="#000000" class="color000000 svgShape">
                <path fill="#dbe0e4" d="M986.84,1900.83v91.04c-14.07,2.23-29.11,2.01-43.03-0.75v-91.12
								C957.73,1902.84,972.77,1903.06,986.84,1900.83z" class="colordbdee4 svgShape"></path>
              </g>
              <g fill="#000000" class="color000000 svgShape">
                <g fill="#000000" class="color000000 svgShape">
                  <path fill="#373d42" d="M967.47,1995.27c-19.41,0-38.85-4.27-53.69-12.83l-607.46-350.7c-14.88-8.61-23.02-20.13-22.93-32.45
									l0.22-91.04c0-1.07,0.88-1.94,1.95-1.94l0,0c1.08,0,1.95,0.87,1.95,1.95c0,10.91,7.45,21.23,20.98,29.06l607.54,350.7
									c28.52,16.48,74.87,16.48,103.31,0l603.44-350.7c13.25-7.69,20.56-17.81,20.62-28.5v-0.12c0-1.07,0.88-1.94,1.95-1.94l0,0
									c1.08,0,1.95,0.87,1.95,1.95c0,0,0,0,0,0l0,0c0,0.04,0,0.08,0,0.12l-0.22,90.92c0,12.18-8.01,23.54-22.57,31.98
									L1021,1982.44C1006.27,1991,986.88,1995.27,967.47,1995.27z M287.47,1522.64l-0.18,76.67
									c-0.08,10.86,7.38,21.18,20.98,29.06l607.46,350.7c28.6,16.49,74.94,16.49,103.31,0l603.52-350.7
									c13.3-7.72,20.62-17.88,20.62-28.62l0.18-76.63c-3.72,6.59-10.03,12.58-18.61,17.57l-603.45,350.7
									c-29.52,17.11-77.62,17.11-107.22,0l-607.54-350.7C297.71,1535.58,291.24,1529.41,287.47,1522.64z" class="color373b42 svgShape"></path>
                </g>
              </g>
              <g fill="#000000" class="color000000 svgShape">
                <g fill="#000000" class="color000000 svgShape">
                  <path fill="#ffffff" d="M1623.43,1478.04c29.14,16.82,29.29,44.15,0.34,60.98l-603.48,350.71
									c-28.99,16.85-76.13,16.82-105.27,0L307.54,1539c-29.18-16.85-29.34-44.13-0.34-60.98l603.48-350.71
									c28.95-16.82,76.08-16.85,105.27,0L1623.43,1478.04z" class="colorffffff svgShape"></path>
                  <path fill="#373d42" d="M967.73,1904.25c-19.41,0-38.85-4.28-53.68-12.84l-607.47-350.73c-14.79-8.54-22.95-20-22.96-32.28
									c-0.02-12.19,8.02-23.58,22.61-32.07l603.48-350.71c29.48-17.12,77.58-17.12,107.23,0l607.48,350.73
									c14.77,8.53,22.91,19.99,22.92,32.28c0.02,12.21-8,23.6-22.57,32.07l-603.49,350.71
									C1006.53,1899.97,987.14,1904.25,967.73,1904.25z M963.24,1116.63c-18.71,0-37.39,4.12-51.58,12.37L308.18,1479.7
									c-13.35,7.76-20.69,17.95-20.68,28.7c0.02,10.83,7.48,21.09,21.01,28.91l607.47,350.73c28.58,16.5,74.93,16.5,103.31,0
									l603.49-350.71c13.33-7.74,20.66-17.94,20.64-28.69c-0.02-10.84-7.46-21.11-20.97-28.91L1014.97,1129
									C1000.68,1120.75,981.96,1116.63,963.24,1116.63z" class="color373b42 svgShape"></path>
                </g>
              </g>
            </g>
          </g>
          <g fill="#000000" class="color000000 svgShape">
            <g fill="#000000" class="color000000 svgShape">
              <g fill="#000000" class="color000000 svgShape">
                <path fill="#373d42" d="M1489.41,1651.66c5.14-2.97,9.32-0.58,9.34,5.32c0.02,5.86-4.14,13.07-9.28,16.03
								c-5.1,2.95-9.29,0.56-9.31-5.3C1480.15,1661.81,1484.31,1654.61,1489.41,1651.66z" class="color373b42 svgShape"></path>
              </g>
            </g>
            <g fill="#000000" class="color000000 svgShape">
              <g fill="#000000" class="color000000 svgShape">
                <path fill="#373d42" d="M1535.94,1624.8c5.14-2.97,9.32-0.58,9.34,5.32c0.02,5.86-4.14,13.07-9.28,16.03
								c-5.1,2.95-9.29,0.56-9.31-5.3C1526.68,1634.95,1530.83,1627.74,1535.94,1624.8z" class="color373b42 svgShape"></path>
              </g>
            </g>
            <g fill="#000000" class="color000000 svgShape">
              <g fill="#000000" class="color000000 svgShape">
                <path fill="#373d42" d="M1582.43,1597.96c5.14-2.96,9.32-0.58,9.34,5.32c0.02,5.86-4.14,13.07-9.28,16.03
								c-5.1,2.95-9.29,0.56-9.31-5.3C1573.16,1608.11,1577.32,1600.9,1582.43,1597.96z" class="color373b42 svgShape"></path>
              </g>
            </g>
          </g>
          <g fill="#000000" class="color000000 svgShape">
            <g fill="#000000" class="color000000 svgShape">
              <g fill="#000000" class="color000000 svgShape">
                <path fill="#373d42" d="M884.31,1906.87c-5.14-2.96-9.32-0.58-9.34,5.32c-0.02,5.86,4.14,13.07,9.28,16.03
								c5.1,2.95,9.29,0.56,9.31-5.3C893.57,1917.02,889.41,1909.81,884.31,1906.87z" class="color373b42 svgShape"></path>
              </g>
            </g>
            <g fill="#000000" class="color000000 svgShape">
              <g fill="#000000" class="color000000 svgShape">
                <path fill="#373d42" d="M837.78,1880c-5.14-2.97-9.32-0.58-9.34,5.32c-0.02,5.86,4.14,13.07,9.28,16.03
								c5.1,2.95,9.29,0.56,9.31-5.3C847.05,1890.15,842.89,1882.95,837.78,1880z" class="color373b42 svgShape"></path>
              </g>
            </g>
            <g fill="#000000" class="color000000 svgShape">
              <g fill="#000000" class="color000000 svgShape">
                <path fill="#373d42" d="M791.3,1853.16c-5.14-2.96-9.32-0.58-9.34,5.32c-0.02,5.86,4.14,13.07,9.28,16.03
								c5.1,2.95,9.29,0.56,9.31-5.3C800.56,1863.31,796.4,1856.11,791.3,1853.16z" class="color373b42 svgShape"></path>
              </g>
            </g>
          </g>
        </g>
        <g fill="#000000" class="color000000 svgShape">
          <g fill="#000000" class="color000000 svgShape">
            <g fill="#000000" class="color000000 svgShape">
              <g fill="#000000" class="color000000 svgShape">
                <g fill="#000000" class="color000000 svgShape">
                  <path fill="#bec7cd" d="M1645.37,1374.19l-0.22,91.04c0,11.02-7.22,21.96-21.59,30.3l-603.52,350.71
									c-9.53,5.51-20.99,9.23-33.2,11.09c-14.07,2.23-29.11,2.01-43.03-0.75c-10.57-2.01-20.55-5.43-29.03-10.35l-607.46-350.71
									c-14.67-8.49-22.04-19.65-21.96-30.74l0.22-91.04c0,11.17,7.3,22.26,21.96,30.74l607.54,350.71
									c8.34,4.84,18.24,8.26,28.74,10.27c13.92,2.83,28.96,3.05,43.03,0.82c12.28-1.79,23.9-5.51,33.5-11.09l603.44-350.71
									C1638.15,1396.15,1645.37,1385.21,1645.37,1374.19z" class="colorbec4cd svgShape"></path>
                </g>
              </g>
              <g fill="#000000" class="color000000 svgShape">
                <path fill="#dbe0e4" d="M986.84,1766.29v91.04c-14.07,2.23-29.11,2.01-43.03-0.75v-91.12
								C957.73,1768.3,972.77,1768.52,986.84,1766.29z" class="colordbdee4 svgShape"></path>
              </g>
              <g fill="#000000" class="color000000 svgShape">
                <g fill="#000000" class="color000000 svgShape">
                  <path fill="#373d42" d="M967.47,1860.73c-19.41,0-38.85-4.28-53.69-12.83l-607.46-350.7c-14.88-8.61-23.02-20.13-22.93-32.45
									l0.22-91.04c0-1.07,0.88-1.94,1.95-1.94l0,0c1.08,0,1.95,0.87,1.95,1.95c0,10.91,7.45,21.23,20.98,29.06l607.54,350.7
									c28.52,16.49,74.87,16.48,103.31,0l603.44-350.7c13.25-7.69,20.56-17.81,20.62-28.5v-0.12c0-1.08,0.88-1.95,1.95-1.95l0,0
									c1.08,0,1.95,0.87,1.95,1.95c0,0,0,0,0,0l0,0c0,0.04,0,0.08,0,0.12l-0.22,90.92c0,12.18-8.01,23.54-22.57,31.98L1021,1847.9
									C1006.27,1856.45,986.88,1860.73,967.47,1860.73z M287.47,1388.1l-0.18,76.67c-0.08,10.86,7.38,21.18,20.98,29.05
									l607.46,350.7c28.6,16.49,74.94,16.49,103.31,0l603.52-350.7c13.3-7.71,20.62-17.87,20.62-28.61l0.18-76.63
									c-3.72,6.59-10.03,12.58-18.61,17.57l-603.45,350.7c-29.52,17.11-77.62,17.11-107.22,0l-607.54-350.7
									C297.71,1401.04,291.24,1394.87,287.47,1388.1z" class="color373b42 svgShape"></path>
                </g>
              </g>
              <g fill="#000000" class="color000000 svgShape">
                <g fill="#000000" class="color000000 svgShape">
                  <path fill="#ffffff" d="M1623.43,1343.5c29.14,16.82,29.29,44.15,0.34,60.98l-603.48,350.71c-28.99,16.85-76.13,16.82-105.27,0
									l-607.48-350.73c-29.18-16.85-29.34-44.13-0.34-60.98l603.48-350.71c28.95-16.82,76.08-16.85,105.27,0L1623.43,1343.5z" class="colorffffff svgShape"></path>
                  <path fill="#373d42" d="M967.73,1769.71c-19.41,0-38.85-4.28-53.68-12.84l-607.47-350.73c-14.79-8.54-22.95-20-22.96-32.28
									c-0.02-12.2,8.02-23.59,22.61-32.07l603.48-350.7c29.48-17.12,77.58-17.12,107.23-0.01l607.48,350.73
									c14.77,8.53,22.91,19.99,22.92,32.28c0.02,12.21-8,23.6-22.57,32.07l-603.49,350.71
									C1006.53,1765.42,987.14,1769.71,967.73,1769.71z M963.25,982.08c-18.71,0-37.4,4.12-51.59,12.37l-603.48,350.7
									c-13.35,7.76-20.69,17.95-20.68,28.7c0.02,10.83,7.48,21.09,21.01,28.91l607.47,350.73c28.58,16.5,74.93,16.5,103.31,0
									l603.49-350.71c13.33-7.74,20.66-17.94,20.64-28.69c-0.02-10.84-7.46-21.1-20.97-28.91l-607.48-350.73
									C1000.68,986.21,981.96,982.08,963.25,982.08z" class="color373b42 svgShape"></path>
                </g>
              </g>
            </g>
          </g>
          <g fill="#000000" class="color000000 svgShape">
            <g fill="#000000" class="color000000 svgShape">
              <g fill="#000000" class="color000000 svgShape">
                <path fill="#373d42" d="M1489.41,1517.11c5.14-2.96,9.32-0.58,9.34,5.32c0.02,5.86-4.14,13.07-9.28,16.03
								c-5.1,2.95-9.29,0.56-9.31-5.3C1480.15,1527.26,1484.31,1520.06,1489.41,1517.11z" class="color373b42 svgShape"></path>
              </g>
            </g>
            <g fill="#000000" class="color000000 svgShape">
              <g fill="#000000" class="color000000 svgShape">
                <path fill="#373d42" d="M1535.94,1490.25c5.14-2.97,9.32-0.58,9.34,5.32c0.02,5.86-4.14,13.07-9.28,16.03
								c-5.1,2.95-9.29,0.56-9.31-5.3C1526.68,1500.4,1530.83,1493.2,1535.94,1490.25z" class="color373b42 svgShape"></path>
              </g>
            </g>
            <g fill="#000000" class="color000000 svgShape">
              <g fill="#000000" class="color000000 svgShape">
                <path fill="#373d42" d="M1582.43,1463.41c5.14-2.96,9.32-0.58,9.34,5.32c0.02,5.86-4.14,13.07-9.28,16.03
								c-5.1,2.95-9.29,0.56-9.31-5.3C1573.16,1473.56,1577.32,1466.36,1582.43,1463.41z" class="color373b42 svgShape"></path>
              </g>
            </g>
          </g>
          <g fill="#000000" class="color000000 svgShape">
            <g fill="#000000" class="color000000 svgShape">
              <g fill="#000000" class="color000000 svgShape">
                <path fill="#373d42" d="M884.31,1772.32c-5.14-2.97-9.32-0.58-9.34,5.32c-0.02,5.86,4.14,13.07,9.28,16.03
								c5.1,2.95,9.29,0.56,9.31-5.3C893.57,1782.47,889.41,1775.27,884.31,1772.32z" class="color373b42 svgShape"></path>
              </g>
            </g>
            <g fill="#000000" class="color000000 svgShape">
              <g fill="#000000" class="color000000 svgShape">
                <path fill="#373d42" d="M837.78,1745.46c-5.14-2.97-9.32-0.58-9.34,5.32c-0.02,5.86,4.14,13.07,9.28,16.03
								c5.1,2.95,9.29,0.56,9.31-5.3C847.05,1755.61,842.89,1748.41,837.78,1745.46z" class="color373b42 svgShape"></path>
              </g>
            </g>
            <g fill="#000000" class="color000000 svgShape">
              <g fill="#000000" class="color000000 svgShape">
                <path fill="#373d42" d="M791.3,1718.62c-5.14-2.96-9.32-0.58-9.34,5.32c-0.02,5.86,4.14,13.07,9.28,16.03
								c5.1,2.95,9.29,0.56,9.31-5.3C800.56,1728.77,796.4,1721.57,791.3,1718.62z" class="color373b42 svgShape"></path>
              </g>
            </g>
          </g>
        </g>
        <g fill="#000000" class="color000000 svgShape">
          <g fill="#000000" class="color000000 svgShape">
            <g fill="#000000" class="color000000 svgShape">
              <g fill="#000000" class="color000000 svgShape">
                <g fill="#000000" class="color000000 svgShape">
                  <path fill="#bec7cd" d="M1279.03,1282.73l-0.37,96.55c-0.15,46.45-30.6,92.83-91.57,128.27
									c-51.96,30.15-117.55,47.57-185.44,52.19c-25.31,1.79-50.99,1.71-76.3-0.07c-67.3-4.84-132.44-22.18-184.25-52.11
									c-62.16-35.88-93.2-83-93.05-130.05l0.37-96.18c0,46.9,31.04,93.8,92.98,129.61c51.66,29.85,116.73,47.2,183.95,52.04
									c25.31,1.94,50.92,1.94,76.3,0.22c67.97-4.54,133.78-21.96,185.81-52.19C1248.36,1375.56,1278.88,1329.18,1279.03,1282.73z" class="colorbec4cd svgShape"></path>
                </g>
              </g>
              <g fill="#000000" class="color000000 svgShape">
                <path fill="#dbe0e4" d="M944.47,1463.99v96.63c14.21,0.49,28.47,0.47,42.67-0.13v-96.58
								C972.92,1464.5,958.67,1464.52,944.47,1463.99z" class="colordbdee4 svgShape"></path>
              </g>
              <g fill="#000000" class="color000000 svgShape">
                <g fill="#000000" class="color000000 svgShape">
                  <path fill="#373d42" d="M964.42,1562.88c-81.12,0-162.35-17.89-224.31-53.66c-60.77-35.09-94.16-81.86-94.03-131.7l0.36-96.52
									c0-0.02,0-0.05,0-0.07v0c0.01-1.07,0.88-1.94,1.95-1.94h0.01c1.07,0,1.94,0.88,1.94,1.95v0.01
									c-0.14,48.38,32.56,93.95,92.07,128.31c122.83,70.92,322.05,70.94,444.04,0.03c58.24-33.84,90.42-78.72,90.63-126.4v-0.16
									c0.01-1.07,0.88-1.94,1.95-1.94h0.01c1.07,0,1.94,0.88,1.94,1.95c0,0.08,0,0.16,0,0.24l-0.36,96.36
									c-0.14,49.17-33.01,95.31-92.56,129.91C1126.52,1545,1045.52,1562.88,964.42,1562.88z M650.23,1310.02l-0.25,67.5
									c-0.13,48.39,32.57,93.96,92.08,128.31c122.83,70.92,322.02,70.93,444.04,0.03c58.3-33.89,90.49-78.83,90.62-126.56
									l0.25-67.36c-10.44,38.04-40.98,73.05-88.56,100.7c-123.1,71.53-324.04,71.51-447.95-0.02
									C691.69,1384.46,660.55,1348.78,650.23,1310.02z" class="color373b42 svgShape"></path>
                </g>
              </g>
              <g fill="#000000" class="color000000 svgShape">
                <g fill="#000000" class="color000000 svgShape">
                  <path fill="#373d42" d="M1185.92,1152.62c123.53,71.32,124.23,187.02,1.51,258.34s-322.47,71.29-446-0.03
									c-123.53-71.32-124.13-186.96-1.4-258.28S1062.4,1081.3,1185.92,1152.62z" class="color373b42 svgShape"></path>
                  <path fill="#373d42" d="M964.78,1466.28c-81.14,0-162.35-17.89-224.32-53.67c-60.56-34.96-93.95-81.57-94.02-131.24
									c-0.07-49.35,32.82-95.66,92.61-130.41c123.1-71.53,324-71.54,447.85-0.04l0,0c60.6,34.99,94,81.63,94.07,131.33
									c0.07,49.35-32.81,95.65-92.56,130.38C1126.88,1448.4,1045.87,1466.28,964.78,1466.28z M962.72,1101.15
									c-80.41,0-160.7,17.73-221.71,53.19c-58.55,34.02-90.74,79.14-90.68,127.04c0.07,48.22,32.77,93.63,92.07,127.87
									c122.83,70.92,322.05,70.94,444.04,0.03c58.51-34,90.69-79.1,90.63-127c-0.07-48.26-32.78-93.7-92.12-127.96
									C1123.57,1118.87,1043.09,1101.15,962.72,1101.15z" class="color373b42 svgShape"></path>
                </g>
                <g fill="#000000" class="color000000 svgShape">
                  <path fill="#1d6faa" d="M964.78,1450.01c-81.78,0-158.53-18.31-216.14-51.57c-55.29-31.92-85.77-73.5-85.83-117.09
									c-0.06-43.26,29.94-84.54,84.47-116.23c57.2-33.24,133.72-51.55,215.45-51.55c81.71,0,158.41,18.3,215.98,51.54
									c55.33,31.94,85.83,73.56,85.89,117.18c0.06,43.26-29.92,84.53-84.42,116.2C1123.01,1431.71,1046.51,1450.01,964.78,1450.01
									z" class="color1fb6ff svgShape"></path>
                  <path fill="#373d42" d="M964.78,1451.96c-82.11,0-159.22-18.41-217.11-51.83c-55.92-32.29-86.75-74.47-86.81-118.78
									c-0.06-43.99,30.28-85.87,85.44-117.92c57.5-33.42,134.36-51.82,216.43-51.82c82.05,0,159.1,18.4,216.95,51.8
									c55.95,32.3,86.8,74.51,86.87,118.86c0.06,43.99-30.26,85.85-85.39,117.89C1123.69,1433.57,1046.85,1451.96,964.78,1451.96z
									 M962.73,1115.52c-81.4,0-157.56,18.22-214.47,51.29c-53.91,31.33-83.56,72.01-83.5,114.55
									c0.06,42.86,30.19,83.84,84.86,115.4c57.31,33.09,133.72,51.31,215.16,51.31c81.4,0,157.54-18.2,214.42-51.26
									c53.88-31.31,83.52-71.98,83.46-114.52c-0.07-42.9-30.23-83.92-84.92-115.49C1120.46,1133.73,1044.1,1115.52,962.73,1115.52
									z" class="color373b42 svgShape"></path>
                </g>
              </g>
            </g>
          </g>
          <g fill="#000000" class="color000000 svgShape">
            <path fill="#ffffff" d="M1068.42,1220.93c58.21,33.61,58.54,88.12,0.71,121.73s-151.95,33.59-210.16-0.01
						c-58.21-33.61-58.49-88.1-0.66-121.7C916.14,1187.34,1010.21,1187.32,1068.42,1220.93z" class="colorffffff svgShape"></path>
            <path fill="#373d42" d="M964.21,1369.74c-38.42,0-76.87-8.47-106.21-25.41c-28.87-16.67-44.78-38.95-44.82-62.73
						c-0.03-23.64,15.65-45.78,44.15-62.34c58.3-33.87,153.43-33.87,212.06-0.02l0,0c28.89,16.68,44.81,38.97,44.84,62.77
						c0.04,23.64-15.64,45.77-44.13,62.33C1040.97,1361.27,1002.61,1369.74,964.21,1369.74z M963.24,1197.69
						c-37.7,0-75.34,8.31-103.95,24.94c-27.26,15.84-42.25,36.78-42.22,58.97c0.04,22.34,15.26,43.42,42.87,59.36
						c57.6,33.26,151,33.26,208.2,0.02c27.24-15.83,42.23-36.77,42.19-58.95c-0.03-22.35-15.26-43.45-42.89-59.4l0,0
						C1038.66,1206,1000.93,1197.69,963.24,1197.69z" class="color373b42 svgShape"></path>
          </g>
          <g fill="#000000" class="color000000 svgShape">
            <path fill="#373d42" d="M1109,1300.11c-5.83-15.81-19.36-30.77-40.57-43.02c-58.24-33.64-152.31-33.64-210.13,0
						c-20.88,12.09-34.15,26.97-39.9,42.52c-10.14-27.56,3.13-57.31,39.9-78.69c57.81-33.56,151.89-33.56,210.13,0
						C1105.62,1242.46,1119.14,1272.47,1109,1300.11z" class="color373b42 svgShape"></path>
            <path fill="#373d42" d="M1109,1302.06c-0.81,0-1.55-0.51-1.83-1.28c-5.85-15.85-19.58-30.38-39.72-42.01
						c-57.6-33.28-151-33.28-208.17,0c-19.73,11.42-33.23,25.78-39.05,41.51c-0.28,0.77-1.01,1.27-1.83,1.27l0,0
						c-0.81,0-1.55-0.51-1.83-1.28c-10.89-29.58,4.34-59.88,40.74-81.05c58.27-33.81,153.4-33.82,212.09,0
						c36.84,21.35,52.33,51.84,41.42,81.56C1110.55,1301.55,1109.82,1302.06,1109,1302.06L1109,1302.06z M963.2,1229.97
						c38.4,0,76.86,8.47,106.2,25.42c18.84,10.88,32.32,24.3,39.32,39.06c6.8-26.21-8.3-52.75-41.27-71.86
						c-57.6-33.19-151-33.18-208.17,0c-32.55,18.93-47.41,45.29-40.61,71.36c6.94-14.63,20.2-27.87,38.65-38.56
						C886.45,1238.45,924.8,1229.97,963.2,1229.97z" class="color373b42 svgShape"></path>
          </g>
        </g>
        <g fill="#000000" class="color000000 svgShape">
          <g fill="#000000" class="color000000 svgShape">
            <g fill="#000000" class="color000000 svgShape">
              <g fill="#000000" class="color000000 svgShape">
                <g fill="#000000" class="color000000 svgShape">
                  <path fill="#373d42" d="M770.87,880.83c-39,0-71.99-6.38-95.32-19.85c-23.09-13.33-35.31-32.95-35.34-56.74
									c-0.08-57.58,68.08-132.99,177.89-196.81c158.74-92.24,353.14-129.63,433.29-83.34l0,0c23.08,13.33,35.3,32.95,35.34,56.73
									c0.08,57.55-68.07,132.94-177.85,196.73C996.31,842.98,865.84,880.83,770.87,880.83z M1155.82,507.99
									c-94.06,0-223.73,37.71-335.75,102.81c-108.61,63.12-176.04,137.24-175.95,193.43c0.03,22.64,11.27,40.59,33.39,53.37
									c79.08,45.66,271.71,8.23,429.42-83.42c108.59-63.1,175.99-137.19,175.92-193.36c-0.03-22.63-11.27-40.58-33.39-53.36
									C1226.55,514.26,1194.13,507.99,1155.82,507.99z" class="color373b42 svgShape"></path>
                </g>
              </g>
              <g fill="#000000" class="color000000 svgShape">
                <g fill="#000000" class="color000000 svgShape">
                  <path fill="#373d42" d="M1156.07,880.83c-94.97,0-225.44-37.85-338.02-103.27c-109.78-63.8-177.93-139.18-177.84-196.73
									c0.03-23.78,12.26-43.4,35.34-56.73c80.19-46.29,274.56-8.9,433.29,83.34c109.81,63.81,177.97,139.23,177.9,196.81
									c-0.04,23.79-12.26,43.41-35.34,56.74C1228.07,874.45,1195.06,880.83,1156.07,880.83z M771.13,507.99
									c-38.33,0-70.73,6.26-93.63,19.48c-22.12,12.77-33.36,30.73-33.39,53.36c-0.08,56.16,67.33,130.25,175.91,193.36
									c157.7,91.65,350.35,129.08,429.43,83.42c22.12-12.77,33.35-30.73,33.39-53.37c0.08-56.2-67.35-130.32-175.96-193.43
									C994.86,545.71,865.19,507.99,771.13,507.99z" class="color373b42 svgShape"></path>
                </g>
              </g>
            </g>
            <g fill="#000000" class="color000000 svgShape">
              <path fill="#373d42" d="M997.21,692.54c0,18.59-15.11,33.7-33.7,33.7c-18.7,0-33.81-15.11-33.81-33.7
							c0-18.7,15.11-33.7,33.81-33.7C982.09,658.84,997.21,673.84,997.21,692.54z" class="color373b42 svgShape"></path>
            </g>
            <g fill="#000000" class="color000000 svgShape">
              <path fill="#373d42" d="M963.45,1036.74c-80.71,0-146.37-154.42-146.37-344.23s65.66-344.23,146.37-344.23
							c80.7,0,146.36,154.42,146.36,344.23S1044.15,1036.74,963.45,1036.74z M963.45,352.18c-78.56,0-142.47,152.67-142.47,340.33
							s63.91,340.33,142.47,340.33s142.46-152.67,142.46-340.33S1042,352.18,963.45,352.18z" class="color373b42 svgShape"></path>
            </g>
          </g>
          <g fill="#000000" class="color000000 svgShape">
            <g fill="#000000" class="color000000 svgShape">
              <path fill="#1d6faa" d="M741.06,509.5c0,8.72-6.95,15.81-15.68,15.81c-8.72,0-15.81-7.08-15.81-15.81
							c0-8.6,7.08-15.68,15.81-15.68C734.11,493.82,741.06,500.9,741.06,509.5z" class="color1fb6ff svgShape"></path>
            </g>
            <g fill="#000000" class="color000000 svgShape">
              <path fill="#1d6faa" d="M741.06,875.68c0,8.72-6.95,15.81-15.68,15.81c-8.72,0-15.81-7.08-15.81-15.81
							c0-8.6,7.08-15.68,15.81-15.68C734.11,860.01,741.06,867.08,741.06,875.68z" class="color1fb6ff svgShape"></path>
            </g>
            <g fill="#000000" class="color000000 svgShape">
              <path fill="#1d6faa" d="M1216.1,875.68c0,8.72-6.95,15.81-15.68,15.81c-8.72,0-15.81-7.08-15.81-15.81
							c0-8.6,7.08-15.68,15.81-15.68C1209.14,860.01,1216.1,867.08,1216.1,875.68z" class="color1fb6ff svgShape"></path>
            </g>
            <g fill="#000000" class="color000000 svgShape">
              <path fill="#1d6faa" d="M979.19,1034.72c0,8.72-6.95,15.81-15.68,15.81c-8.72,0-15.81-7.08-15.81-15.81
							c0-8.6,7.08-15.68,15.81-15.68C972.23,1019.04,979.19,1026.12,979.19,1034.72z" class="color1fb6ff svgShape"></path>
            </g>
            <g fill="#000000" class="color000000 svgShape">
              <path fill="#1d6faa" d="M979.19,350.17c0,8.72-6.95,15.81-15.68,15.81c-8.72,0-15.81-7.08-15.81-15.81
							c0-8.6,7.08-15.68,15.81-15.68C972.23,334.49,979.19,341.57,979.19,350.17z" class="color1fb6ff svgShape"></path>
            </g>
            <g fill="#000000" class="color000000 svgShape">
              <path fill="#1d6faa" d="M1216.1,509.36c0,8.72-6.95,15.81-15.68,15.81c-8.72,0-15.81-7.08-15.81-15.81
							c0-8.6,7.08-15.68,15.81-15.68C1209.14,493.68,1216.1,500.76,1216.1,509.36z" class="color1fb6ff svgShape"></path>
            </g>
          </g>
        </g>
        <linearGradient id="SVGID_1_" x1="963.472" x2="963.472" y1="1448.139" y2="267.758" gradientUnits="userSpaceOnUse">
          <stop offset=".033" stop-color="#1fa1ff" stop-opacity=".9" class="stopColor1fb6ff svgShape"></stop>
          <stop offset=".354" stop-color="#73c4ff" stop-opacity=".602" class="stopColor73d1ff svgShape"></stop>
          <stop offset=".667" stop-color="#bee4ff" stop-opacity=".31" class="stopColorbeeaff svgShape"></stop>
          <stop offset=".889" stop-color="#edf7ff" stop-opacity=".103" class="stopColoredf9ff svgShape"></stop>
          <stop offset="1" stop-color="#ffffff" stop-opacity="0" class="stopColorffffff svgShape"></stop>
        </linearGradient>
        <path fill="url(#SVGID_1_)" d="M1461.2,545.36l-198.47,736.92c0.07,42.58-29.55,83.3-83.45,114.57c-56.95,33.13-133.11,51.29-214.47,51.29
				c-81.44,0-157.89-18.24-215.22-51.29c-54.49-31.49-84.64-72.28-84.94-115.02h-0.15L465.81,544.02
				c-17.2-63.8,18.02-129.09,103.77-182.46c95.59-59.48,236.51-93.8,392.24-93.8c155.74,0,297.1,34.17,393.51,93.8
				C1442.44,415.31,1478.39,481.12,1461.2,545.36z"></path>
      </g>
      <g fill="#000000" class="color000000 svgShape">
        <g fill="#000000" class="color000000 svgShape">
          <path fill="#dbe0e4" d="M2048.99,2249.84c-8.84,0-17.69-1.95-24.44-5.85l-166-95.84c-6.93-4-10.75-9.43-10.76-15.3
					c-0.01-5.84,3.76-11.24,10.6-15.22l164.91-95.84c13.43-7.8,35.33-7.8,48.82-0.01l166,95.84c6.93,4,10.75,9.43,10.76,15.3
					c0.01,5.83-3.75,11.23-10.59,15.21l-164.92,95.84C2066.65,2247.89,2057.83,2249.84,2048.99,2249.84z M2047.7,2019.79
					c-8.13,0-16.25,1.79-22.42,5.38l-164.91,95.84c-5.6,3.25-8.66,7.45-8.66,11.83c0.01,4.42,3.14,8.66,8.81,11.94l166,95.84
					c12.43,7.17,32.57,7.17,44.9,0l164.92-95.84c5.59-3.25,8.66-7.45,8.66-11.84c-0.01-4.42-3.14-8.66-8.81-11.93l0,0l-166-95.84
					C2063.97,2021.58,2055.83,2019.79,2047.7,2019.79z" class="colordbdee4 svgShape"></path>
        </g>
      </g>
      <g fill="#000000" class="color000000 svgShape">
        <g fill="#000000" class="color000000 svgShape">
          <g fill="#000000" class="color000000 svgShape">
            <path fill="#ffffff" d="M1988.6,2098.14c-33.22,19.18-33.39,50.26-0.34,69.47c33,19.18,86.65,19.18,119.87,0
						c33.16-19.15,33.33-50.22,0.34-69.4C2075.41,2079,2021.76,2079,1988.6,2098.14z" class="colorffffff svgShape"></path>
            <path fill="#373d42" d="M2048.12,2183.89c-22.06,0-44.1-4.86-60.84-14.59c-16.56-9.63-25.67-22.53-25.65-36.33
						c0.02-13.88,9.25-26.84,25.99-36.51l0,0c33.66-19.44,88.31-19.41,121.83,0.06c16.53,9.61,25.63,22.5,25.6,36.3
						c-0.02,13.87-9.24,26.83-25.95,36.48C2092.26,2179.03,2070.17,2183.89,2048.12,2183.89z M1989.57,2099.83
						c-15.49,8.95-24.03,20.71-24.04,33.14c-0.02,12.35,8.41,24.05,23.72,32.95c32.38,18.83,85.28,18.84,117.92,0
						c15.46-8.93,23.98-20.69,24-33.11c0.02-12.35-8.38-24.04-23.67-32.92C2075.05,2081.04,2022.15,2081.03,1989.57,2099.83
						L1989.57,2099.83z" class="color373b42 svgShape"></path>
          </g>
        </g>
        <g fill="#000000" class="color000000 svgShape">
          <g fill="#000000" class="color000000 svgShape">
            <g fill="#000000" class="color000000 svgShape">
              <g fill="#000000" class="color000000 svgShape">
                <path fill="#ffffff" d="M1993.43,1922.41l0.64,204.76c0.02,8.05,5.32,16.08,15.9,22.23c21.25,12.35,55.81,12.35,77.2,0
								c10.74-6.2,16.11-14.35,16.09-22.49l-0.64-204.76c0.02,8.14-5.34,16.28-16.09,22.49c-21.39,12.35-55.95,12.35-77.2,0
								C1998.74,1938.5,1993.45,1930.46,1993.43,1922.41z" class="colorffffff svgShape"></path>
              </g>
            </g>
            <g fill="#000000" class="color000000 svgShape">
              <g fill="#000000" class="color000000 svgShape">
                <path fill="#dbe0e4" d="M2009.32,1944.64c10.56,6.14,24.4,9.21,38.28,9.25v204.72c-13.66-0.13-27.24-3.17-37.64-9.21
								c-10.58-6.15-15.87-14.19-15.9-22.23l-0.64-204.76C1993.45,1930.46,1998.74,1938.5,2009.32,1944.64z" class="colordbdee4 svgShape"></path>
              </g>
            </g>
            <g fill="#000000" class="color000000 svgShape">
              <g fill="#000000" class="color000000 svgShape">
                <path fill="#373d42" d="M2048.52,2160.57c-14.34,0-28.66-3.16-39.54-9.48c-10.85-6.31-16.84-14.8-16.86-23.91l-0.64-204.76l0,0
								c0-1.08,0.87-1.95,1.94-1.95h0.01c1.07,0,1.95,0.87,1.95,1.94c0.02,7.68,5.32,14.97,14.93,20.55
								c20.67,12.02,54.44,12.02,75.24,0c9.77-5.64,15.14-13.02,15.11-20.79v0l0,0c0-1.08,0.87-1.95,1.94-1.95c0.01,0,0.01,0,0.01,0
								c1.07,0,1.95,0.87,1.95,1.94l0.65,204.76c0.02,9.23-6.03,17.82-17.06,24.18C2077.2,2157.41,2062.85,2160.57,2048.52,2160.57z
								 M1995.42,1934.79l0.6,192.37c0.02,7.67,5.32,14.97,14.93,20.55c20.68,12.02,54.44,12.01,75.25,0
								c9.77-5.64,15.14-13.02,15.11-20.8l-0.61-192.38c-2.89,4.4-7.34,8.41-13.2,11.79c-21.9,12.64-57.4,12.64-79.16-0.01
								C2002.63,1943.01,1998.27,1939.09,1995.42,1934.79z" class="color373b42 svgShape"></path>
              </g>
            </g>
            <g fill="#000000" class="color000000 svgShape">
              <g fill="#000000" class="color000000 svgShape">
                <path fill="#ffffff" d="M2009.54,1899.91c-21.39,12.35-21.51,32.37-0.22,44.74c21.25,12.35,55.81,12.35,77.2,0
								c21.36-12.33,21.47-32.35,0.22-44.7C2065.45,1887.58,2030.9,1887.58,2009.54,1899.91z" class="colorffffff svgShape"></path>
                <path fill="#373d42" d="M2047.87,1955.81c-14.34,0-28.65-3.16-39.53-9.48c-10.89-6.33-16.88-14.85-16.87-24
								c0.02-9.2,6.08-17.76,17.09-24.12c21.86-12.63,57.37-12.61,79.16,0.05c10.86,6.32,16.85,14.83,16.83,23.97
								c-0.02,9.19-6.08,17.75-17.06,24.1C2076.55,1952.65,2062.2,1955.81,2047.87,1955.81z M2048.12,1892.6
								c-13.61,0-27.23,3-37.61,8.99l0,0c-9.75,5.63-15.13,13-15.14,20.74c-0.01,7.7,5.29,15.02,14.94,20.62
								c20.67,12.02,54.44,12.02,75.24,0c9.74-5.62,15.1-12.98,15.11-20.73c0.01-7.69-5.28-15.01-14.9-20.6
								C2075.4,1895.61,2061.77,1892.6,2048.12,1892.6z M2009.54,1899.91h0.05H2009.54z" class="color373b42 svgShape"></path>
              </g>
            </g>
          </g>
        </g>
        <g fill="#000000" class="color000000 svgShape">
          <g fill="#000000" class="color000000 svgShape">
            <g fill="#000000" class="color000000 svgShape">
              <g fill="#000000" class="color000000 svgShape">
                <path fill="#ffffff" d="M2011.82,1793.22l0.43,125.26c0.02,5.35,3.54,10.7,10.57,14.78c14.13,8.21,37.12,8.21,51.34,0
								c7.14-4.12,10.71-9.54,10.7-14.95l-0.43-125.26c0.02,5.41-3.55,10.83-10.7,14.95c-14.23,8.21-37.21,8.21-51.34,0
								C2015.36,1803.91,2011.84,1798.57,2011.82,1793.22z" class="colorffffff svgShape"></path>
              </g>
            </g>
            <g fill="#000000" class="color000000 svgShape">
              <g fill="#000000" class="color000000 svgShape">
                <path fill="#dbe0e4" d="M2022.39,1808c6.96,4.04,16.06,6.08,25.21,6.14v125.24c-9-0.12-17.93-2.13-24.78-6.11
								c-7.04-4.09-10.56-9.43-10.57-14.78l-0.43-125.26C2011.84,1798.57,2015.36,1803.91,2022.39,1808z" class="colordbdee4 svgShape"></path>
              </g>
            </g>
            <g fill="#000000" class="color000000 svgShape">
              <g fill="#000000" class="color000000 svgShape">
                <path fill="#373d42" d="M2048.46,1941.33c-9.65,0-19.29-2.13-26.62-6.39c-7.42-4.31-11.53-10.16-11.54-16.46l-0.43-125.26l0,0
								c0-1.08,0.87-1.95,1.94-1.95h0.01c1.07,0,1.95,0.87,1.95,1.94v0c0.02,4.86,3.43,9.51,9.6,13.1c13.57,7.89,35.74,7.89,49.39,0
								c6.28-3.63,9.74-8.34,9.72-13.26v0c0,0,0,0,0,0c0-1.08,0.87-1.95,1.94-1.95h0.01c1.07,0,1.95,0.87,1.95,1.94l0.43,125.26
								c0.02,6.38-4.13,12.3-11.68,16.65C2067.77,1939.2,2058.1,1941.33,2048.46,1941.33z M2013.81,1803.44l0.39,115.04
								c0.02,4.86,3.43,9.52,9.61,13.11c13.57,7.89,35.73,7.89,49.38,0c6.29-3.63,9.75-8.34,9.73-13.26l-0.4-115.05
								c-1.93,2.37-4.55,4.54-7.81,6.43c-14.75,8.51-38.65,8.51-53.3,0C2018.26,1807.85,2015.71,1805.74,2013.81,1803.44z" class="color373b42 svgShape"></path>
              </g>
            </g>
            <g fill="#000000" class="color000000 svgShape">
              <g fill="#000000" class="color000000 svgShape">
                <path fill="#1d6faa" d="M2022.54,1778.25c-14.23,8.21-14.3,21.53-0.14,29.75c14.13,8.21,37.12,8.21,51.34,0
								c14.2-8.2,14.28-21.51,0.14-29.73C2059.72,1770.05,2036.74,1770.05,2022.54,1778.25z" class="color1fb6ff svgShape"></path>
                <path fill="#373d42" d="M2048.03,1816.07c-9.65,0-19.29-2.13-26.62-6.39c-7.45-4.33-11.54-10.2-11.53-16.52
								c0.01-6.36,4.16-12.25,11.69-16.6l0,0c14.73-8.5,38.65-8.49,53.3,0.03c7.44,4.32,11.53,10.19,11.52,16.51
								c-0.01,6.36-4.16,12.24-11.67,16.58C2067.34,1813.94,2057.68,1816.07,2048.03,1816.07z M2023.51,1779.94
								c-6.27,3.62-9.73,8.32-9.74,13.23c-0.01,4.88,3.4,9.55,9.6,13.15c13.57,7.89,35.74,7.89,49.39,0
								c6.27-3.61,9.71-8.31,9.72-13.21c0.01-4.87-3.4-9.54-9.59-13.14C2059.32,1772.07,2037.15,1772.06,2023.51,1779.94
								L2023.51,1779.94z" class="color373b42 svgShape"></path>
              </g>
            </g>
            <g fill="#000000" class="color000000 svgShape">
              <linearGradient id="SVGID_2_" x1="2048.118" x2="2048.118" y1="1818.381" y2="1656.203" gradientUnits="userSpaceOnUse">
                <stop offset="0" stop-color="#1fa1ff" stop-opacity=".9" class="stopColor1fb6ff svgShape"></stop>
                <stop offset="1" stop-color="#ffffff" stop-opacity="0" class="stopColorffffff svgShape"></stop>
              </linearGradient>
              <path fill="url(#SVGID_2_)" d="M2082.3,1648.68v144.13c-0.18,4.93-3.52,9.78-9.96,13.57c-13.48,7.75-35.15,7.75-48.54,0
							c-6.43-3.79-9.69-8.63-9.87-13.57v-144.13H2082.3z"></path>
            </g>
          </g>
        </g>
      </g>
      <g fill="#000000" class="color000000 svgShape">
        <path fill="#ffffff" d="M2097.01,421.89c-6.66-3.84-12.05-0.77-12.07,6.88c-0.02,7.65,5.33,16.98,11.99,20.83l115.89,66.91
				c6.66,3.84,12.1,0.74,12.12-6.91s-5.38-16.95-12.04-20.8L2097.01,421.89z" class="colorffffff svgShape"></path>
        <path fill="#373d42" d="M2218.24,520.11c-2,0-4.17-0.64-6.39-1.92l-115.89-66.91c-7.29-4.21-12.98-14.1-12.97-22.52
				c0.02-4.41,1.61-7.76,4.51-9.42c2.91-1.67,6.65-1.36,10.49,0.86l0,0l115.88,66.91c7.32,4.23,13.04,14.11,13.02,22.49
				c-0.02,4.41-1.62,7.76-4.53,9.44C2221.12,519.75,2219.72,520.11,2218.24,520.11z M2091.61,422.17c-0.81,0-1.54,0.18-2.17,0.54
				c-1.64,0.94-2.54,3.09-2.55,6.05c-0.02,6.91,5.03,15.68,11.02,19.13l115.89,66.91c2.61,1.51,4.96,1.8,6.62,0.85
				c1.65-0.95,2.57-3.11,2.57-6.07c0.02-6.88-5.05-15.63-11.07-19.1l-115.88-66.91C2094.43,422.64,2092.92,422.17,2091.61,422.17z" class="color373b42 svgShape"></path>
      </g>
      <g fill="#000000" class="color000000 svgShape">
        <path fill="#ffffff" d="M2097.01,492.17c-6.66-3.84-12.05-0.77-12.07,6.88c-0.02,7.65,5.33,16.98,11.99,20.83l137.87,79.6
				c6.66,3.84,12.1,0.74,12.12-6.91c0.02-7.65-5.38-16.95-12.04-20.8L2097.01,492.17z" class="colorffffff svgShape"></path>
        <path fill="#373d42" d="M2240.22,603.09c-1.99,0-4.17-0.64-6.38-1.92l-137.88-79.6c-7.29-4.21-12.98-14.1-12.97-22.52
				c0.02-4.41,1.61-7.76,4.5-9.42c2.92-1.67,6.65-1.36,10.5,0.86l0,0l137.87,79.6c7.32,4.23,13.04,14.11,13.02,22.49
				c-0.02,4.41-1.62,7.76-4.53,9.43C2243.1,602.73,2241.71,603.09,2240.22,603.09z M2091.61,492.46c-0.81,0-1.54,0.18-2.17,0.54
				c-1.64,0.94-2.54,3.09-2.55,6.05c-0.02,6.91,5.03,15.68,11.02,19.13l137.88,79.6c2.59,1.5,4.96,1.81,6.62,0.84
				c1.65-0.95,2.57-3.1,2.57-6.07c0.02-6.88-5.05-15.63-11.07-19.11l-137.87-79.6C2094.43,492.93,2092.92,492.46,2091.61,492.46z" class="color373b42 svgShape"></path>
      </g>
    </g>
  </g>
</svg>
