<svg xmlns="http://www.w3.org/2000/svg" xml:space="preserve" id="Eyeverification" x="0" y="0" enable-background="new 0 0 2500 2500" version="1.1" viewBox="0 0 2500 2500">
  <g fill="#000000" class="color000000 svgShape">
    <g fill="#000000" class="color000000 svgShape">
      <g fill="#000000" class="color000000 svgShape">
        <path fill="#dbe0e4" d="M1301.01,1564.56c-0.33,0-0.67-0.08-0.98-0.26l-247.76-143.99c-10.85-6.32-24.36-6.32-35.24,0
				l-220.51,128.15c-0.94,0.53-2.13,0.22-2.66-0.71c-0.54-0.93-0.23-2.12,0.7-2.66l220.51-128.15c12.1-7.02,27.1-7.01,39.17,0
				l247.76,143.99c0.93,0.54,1.24,1.74,0.7,2.67C1302.33,1564.21,1301.68,1564.56,1301.01,1564.56z" class="colordbdee4 svgShape"></path>
      </g>
      <g fill="#000000" class="color000000 svgShape">
        <circle cx="1151.21" cy="1475.65" r="11.94" fill="#373d42" class="color373b42 svgShape"></circle>
      </g>
      <g fill="#000000" class="color000000 svgShape">
        <g fill="#000000" class="color000000 svgShape">
          <path fill="#ffffff" d="M1273.27,1578.94c-15.42-8.9-15.51-23.35-0.19-32.25c15.32-8.9,40.26-8.9,55.68,0
					c15.42,8.9,15.5,23.34,0.18,32.24C1313.61,1587.83,1288.69,1587.84,1273.27,1578.94z" class="colorffffff svgShape"></path>
          <path fill="#dbe0e4" d="M1301.13,1587.52c-10.43,0-20.87-2.3-28.84-6.9c-8.12-4.69-12.59-11.03-12.59-17.87
					c-0.02-6.79,4.39-13.1,12.4-17.75c15.84-9.19,41.7-9.2,57.64,0c8.11,4.68,12.58,11.02,12.59,17.86
					c0.02,6.8-4.39,13.1-12.4,17.76C1321.99,1585.22,1311.57,1587.52,1301.13,1587.52z M1300.87,1541.94
					c-9.72,0-19.43,2.14-26.81,6.43c-6.75,3.92-10.47,9.03-10.46,14.37c0.01,5.39,3.78,10.54,10.64,14.51
					c14.86,8.58,38.96,8.57,53.71,0c6.76-3.93,10.48-9.03,10.47-14.38c-0.01-5.38-3.78-10.53-10.64-14.49
					C1320.35,1544.08,1310.6,1541.94,1300.87,1541.94z" class="colordbdee4 svgShape"></path>
        </g>
        <g fill="#000000" class="color000000 svgShape">
          <path fill="#1d6faa" d="M1300.92,1552.64c6.01,0,11.83,1.37,15.96,3.75c3.32,1.92,5.22,4.27,5.23,6.46c0,2.16-1.86,4.49-5.12,6.38
					c-4.1,2.38-9.89,3.75-15.9,3.75c-6.01,0-11.82-1.37-15.95-3.75c-3.32-1.92-5.23-4.27-5.23-6.46c0-2.16,1.86-4.49,5.12-6.38
					C1289.12,1554,1294.92,1552.64,1300.92,1552.64z" class="color1fb6ff svgShape"></path>
        </g>
      </g>
      <g fill="#000000" class="color000000 svgShape">
        <g fill="#000000" class="color000000 svgShape">
          <path fill="#dbe0e4" d="M473.94,2143.16c-0.34,0-0.67-0.08-0.97-0.26l-210.46-121.51c-8.09-4.67-12.54-10.99-12.55-17.79
					c-0.01-6.77,4.39-13.04,12.37-17.68l311.32-180.92c0.94-0.54,2.12-0.23,2.66,0.71c0.54,0.93,0.23,2.12-0.7,2.67L264.29,1989.3
					c-6.73,3.91-10.44,8.99-10.43,14.3c0.01,5.36,3.77,10.48,10.6,14.43l210.46,121.51c0.93,0.54,1.25,1.73,0.72,2.66
					C475.26,2142.81,474.61,2143.16,473.94,2143.16z" class="colordbdee4 svgShape"></path>
        </g>
      </g>
      <g fill="#000000" class="color000000 svgShape">
        <g fill="#000000" class="color000000 svgShape">
          <g fill="#000000" class="color000000 svgShape">
            <path fill="#ffffff" d="M517.33,2132.75c15.42,8.9,15.51,23.35,0.19,32.25c-15.32,8.9-40.26,8.9-55.68,0
						c-15.42-8.9-15.5-23.34-0.17-32.24S501.91,2123.85,517.33,2132.75z" class="colorffffff svgShape"></path>
            <path fill="#dbe0e4" d="M489.72,2173.59c-10.44,0-20.89-2.3-28.86-6.9c-8.11-4.68-12.58-11.03-12.59-17.86
						c-0.02-6.8,4.39-13.1,12.4-17.76c15.84-9.2,41.7-9.2,57.62,0l0,0c8.11,4.68,12.59,11.03,12.59,17.86
						c0.01,6.8-4.39,13.1-12.4,17.76C510.58,2171.29,500.15,2173.59,489.72,2173.59z M489.46,2128.01c-9.73,0-19.44,2.14-26.82,6.43
						c-6.76,3.93-10.48,9.03-10.47,14.38c0.01,5.39,3.78,10.53,10.64,14.49c14.86,8.58,38.96,8.58,53.72,0
						c6.76-3.93,10.48-9.03,10.47-14.38c-0.01-5.39-3.79-10.54-10.64-14.5l0,0C508.93,2130.16,499.19,2128.01,489.46,2128.01z" class="colordbdee4 svgShape"></path>
          </g>
          <g fill="#000000" class="color000000 svgShape">
            <path fill="#1d6faa" d="M489.68,2159.05c-6.01,0-11.83-1.37-15.96-3.75c-3.32-1.92-5.22-4.27-5.23-6.46
						c0-2.16,1.86-4.49,5.12-6.38c4.1-2.38,9.89-3.75,15.9-3.75c6.01,0,11.82,1.37,15.95,3.75c3.32,1.92,5.23,4.27,5.23,6.46
						c0,2.16-1.86,4.49-5.12,6.38C501.47,2157.68,495.68,2159.05,489.68,2159.05z" class="color1fb6ff svgShape"></path>
          </g>
        </g>
        <g fill="#000000" class="color000000 svgShape">
          <circle cx="355.05" cy="2070.8" r="11.94" fill="#373d42" transform="rotate(-75.404 355.042 2070.839)" class="color373b42 svgShape"></circle>
        </g>
      </g>
      <g fill="#000000" class="color000000 svgShape">
        <path fill="#dbe0e4" d="M2184.29,2186.6c-0.34,0-0.67-0.08-0.98-0.26l-299.1-173.8c-0.93-0.54-1.24-1.74-0.7-2.67
				c0.53-0.94,1.72-1.25,2.67-0.71l299.1,173.8c0.93,0.54,1.24,1.74,0.7,2.67C2185.61,2186.25,2184.96,2186.6,2184.29,2186.6z" class="colordbdee4 svgShape"></path>
      </g>
      <g fill="#000000" class="color000000 svgShape">
        <g fill="#000000" class="color000000 svgShape">
          <path fill="#ffffff" d="M2236.47,2214.98c15.42-8.9,15.51-23.35,0.19-32.25s-40.26-8.9-55.68,0c-15.42,8.9-15.5,23.34-0.18,32.24
					S2221.05,2223.88,2236.47,2214.98z" class="colorffffff svgShape"></path>
          <path fill="#dbe0e4" d="M2208.61,2223.57c-10.44,0-20.86-2.3-28.78-6.9c-8.01-4.66-12.42-10.97-12.41-17.76
					c0.02-6.83,4.48-13.17,12.59-17.85c15.94-9.2,41.79-9.2,57.63,0c8.01,4.66,12.41,10.96,12.4,17.76
					c-0.02,6.84-4.48,13.18-12.6,17.87C2229.48,2221.27,2219.04,2223.57,2208.61,2223.57z M2208.86,2177.99
					c-9.73,0-19.48,2.14-26.91,6.43c-6.85,3.96-10.64,9.1-10.64,14.49c-0.01,5.35,3.72,10.45,10.48,14.38
					c14.76,8.58,38.86,8.58,53.7,0l0,0c6.86-3.96,10.64-9.11,10.65-14.5c0.01-5.34-3.71-10.45-10.47-14.38
					C2228.3,2180.13,2218.59,2177.99,2208.86,2177.99z" class="colordbdee4 svgShape"></path>
        </g>
        <g fill="#000000" class="color000000 svgShape">
          <path fill="#1d6faa" d="M2208.82,2188.69c-6.01,0-11.83,1.37-15.96,3.75c-3.32,1.92-5.22,4.27-5.23,6.46
					c0,2.16,1.86,4.49,5.12,6.38c4.1,2.38,9.89,3.75,15.9,3.75c6.01,0,11.82-1.37,15.95-3.75c3.32-1.92,5.23-4.27,5.23-6.46
					c0-2.16-1.86-4.49-5.12-6.38C2220.61,2190.05,2214.82,2188.69,2208.82,2188.69z" class="color1fb6ff svgShape"></path>
        </g>
      </g>
      <g fill="#000000" class="color000000 svgShape">
        <ellipse cx="2050.31" cy="2105.87" fill="#373d42" rx="11.94" ry="11.93" transform="rotate(-4.211 2050.346 2105.237)" class="color373b42 svgShape"></ellipse>
      </g>
      <g opacity=".1" fill="#000000" class="color000000 svgShape">
        <polygon points="2178.91 1893.82 1565.08 2248.11 1420.03 2163.81 2033.66 1809.43" fill="#000000" class="color000000 svgShape"></polygon>
      </g>
      <g fill="#000000" class="color000000 svgShape">
        <g fill="#000000" class="color000000 svgShape">
          <g fill="#000000" class="color000000 svgShape">
            <g fill="#000000" class="color000000 svgShape">
              <path fill="#bec7cd" d="M2077.24,524.24c-9.2-5.31-22.09-4.54-36.21,3.64l-527.89,304.85c-8.5,4.91-16.51,11.88-23.51,20.2
							c-4.59,5.31-8.79,11.26-12.38,17.48c-3.59,6.22-6.64,12.67-9.04,19.32c-3.81,10.41-5.96,21.02-5.87,30.98l3.32,1165.86
							c-0.02,16.16,5.64,27.46,14.78,32.74l106.37,61.75c-9.2-5.31-14.93-16.66-14.88-32.71l-3.38-1165.89
							c-0.08-10.12,2.1-20.79,6.05-31.29c2.4-6.65,5.51-13.07,9.11-19.29c3.59-6.22,7.75-12.11,12.38-17.48
							c6.96-8.25,14.93-15.16,23.33-20.04l527.82-304.72c14.28-8.17,27-8.95,36.4-3.53L2077.24,524.24z" class="colorbec4cd svgShape"></path>
            </g>
            <g fill="#000000" class="color000000 svgShape">
              <path fill="#dbe0e4" d="M1596.09,914.38l-106.45-61.45c-4.59,5.31-8.79,11.26-12.38,17.48c-3.59,6.22-6.64,12.67-9.04,19.32
							l106.38,61.42c2.4-6.65,5.51-13.07,9.11-19.29C1587.3,925.64,1591.46,919.75,1596.09,914.38z" class="colordbdee4 svgShape"></path>
            </g>
            <g fill="#000000" class="color000000 svgShape">
              <path fill="#373d42" d="M1586.79,2183.01c-0.33,0-0.67-0.08-0.97-0.26c0,0,0,0-0.01,0l-106.33-61.76
							c-10.17-5.88-15.78-18.1-15.78-34.41l-3.34-1165.86c-0.08-16.08,5.32-34.3,15.22-51.3c9.75-16.75,22.74-30.39,36.57-38.41
							l527.89-304.83c14.3-8.3,27.88-9.59,38.2-3.62l106.39,61.79c0.93,0.54,1.24,1.73,0.71,2.66c-0.56,0.94-1.76,1.24-2.67,0.72
							c-9.05-5.23-21.27-3.97-34.43,3.56L1620.4,896.06c-13.23,7.64-25.67,20.7-35.02,36.77c-9.64,16.58-14.92,34.2-14.86,49.61
							l3.34,1165.86c-0.05,14.76,4.84,25.76,13.77,31l0.14,0.08c0.93,0.54,1.24,1.73,0.71,2.67
							C1588.12,2182.66,1587.46,2183.01,1586.79,2183.01z M2063.9,522.78c-6.69,0-14.15,2.28-21.91,6.79l-527.9,304.83
							c-13.26,7.69-25.74,20.83-35.16,37c-9.55,16.4-14.76,33.92-14.69,49.32l3.34,1165.87c0,14.86,4.92,25.88,13.84,31.04
							l94.04,54.62c-3.64-6.3-5.54-14.43-5.51-23.94l-3.34-1165.84c-0.07-16.09,5.4-34.41,15.39-51.58
							c9.69-16.66,22.62-30.22,36.43-38.19l527.86-304.76c8.52-4.87,16.53-7.37,24.21-7.24l-94.23-54.73
							C2072.62,523.83,2068.44,522.78,2063.9,522.78z" class="color373b42 svgShape"></path>
            </g>
            <g fill="#000000" class="color000000 svgShape">
              <line x1="2114.14" x2="2007.55" y1="608.73" y2="547.2" fill="#fff"></line>
              <path fill="#373d42" d="M2114.14,610.68c-0.33,0-0.67-0.08-0.97-0.26l-106.58-61.53c-0.93-0.54-1.25-1.73-0.72-2.66
							c0.55-0.94,1.74-1.25,2.67-0.71l106.58,61.53c0.93,0.54,1.25,1.73,0.72,2.66C2115.46,610.33,2114.81,610.68,2114.14,610.68z" class="color373b42 svgShape"></path>
            </g>
            <g fill="#000000" class="color000000 svgShape">
              <g fill="#000000" class="color000000 svgShape">
                <g fill="#000000" class="color000000 svgShape">
                  <g fill="#000000" class="color000000 svgShape">
                    <g fill="#000000" class="color000000 svgShape">
                      <g fill="#000000" class="color000000 svgShape">
                        <g fill="#000000" class="color000000 svgShape">
                          <g fill="#000000" class="color000000 svgShape">
                            <g fill="#000000" class="color000000 svgShape">
                              <g fill="#000000" class="color000000 svgShape">
                                <path fill="#373d42" d="M1517.82,1122.29c-4.48-2.5-8.55-2.81-11.46-1.13l-10.81,6.2c2.98-1.64,6.98-1.37,11.46,1.13
																c8.96,5.17,16.2,17.75,16.23,28.12l-0.01,90.58c-0.04,5.28-1.87,8.91-4.83,10.66l10.81-6.2
																c2.95-1.74,4.78-5.37,4.83-10.66l0.01-90.58C1534.02,1140.04,1526.78,1127.46,1517.82,1122.29z" class="color373b42 svgShape"></path>
                                <path fill="#373d42" d="M1518.4,1259.78c-0.67,0-1.32-0.35-1.68-0.97c-0.54-0.93-0.23-2.11,0.69-2.66
																c2.46-1.45,3.83-4.64,3.87-8.99l0.01-90.56c-0.03-9.73-6.87-21.59-15.25-26.43c-3.72-2.06-7.1-2.46-9.54-1.11
																c-0.94,0.53-2.12,0.19-2.64-0.75c-0.53-0.93-0.2-2.11,0.73-2.65l10.81-6.2c3.59-2.08,8.35-1.68,13.38,1.12
																c0.01,0,0.02,0.01,0.02,0.02c9.61,5.55,17.17,18.64,17.2,29.79l-0.01,90.59c-0.05,5.79-2.1,10.16-5.79,12.34
																l-10.84,6.21C1519.07,1259.7,1518.73,1259.78,1518.4,1259.78z M1503.65,1124.96c1.4,0.4,2.85,1.01,4.31,1.82
																c9.63,5.56,17.19,18.65,17.22,29.82l-0.01,90.58c-0.02,1.76-0.21,3.39-0.59,4.87l3.66-2.09
																c2.44-1.44,3.81-4.63,3.85-8.98l0.01-90.56c-0.03-9.72-6.86-21.57-15.24-26.42c-3.76-2.1-7.14-2.51-9.53-1.15
																L1503.65,1124.96z" class="color373b42 svgShape"></path>
                              </g>
                            </g>
                            <g fill="#000000" class="color000000 svgShape">
                              <g fill="#000000" class="color000000 svgShape">
                                <path fill="#ffffff" d="M1523.22,1156.61c0-10.39-7.26-22.97-16.23-28.11c-8.97-5.14-16.23-0.9-16.23,9.49l0.01,90.6
																c0,10.39,7.26,22.97,16.23,28.11c8.97,5.14,16.23,0.9,16.23-9.49L1523.22,1156.61z" class="colorffffff svgShape"></path>
                                <path fill="#373d42" d="M1514.2,1260.85c-2.55,0-5.33-0.82-8.17-2.45c-9.65-5.54-17.22-18.63-17.22-29.81l-0.01-90.6
																c-0.01-5.76,2.03-10.12,5.74-12.27c3.72-2.14,8.47-1.74,13.4,1.09c9.65,5.54,17.22,18.63,17.22,29.81l0.01,90.6
																c0.01,5.76-2.03,10.12-5.74,12.27C1517.85,1260.4,1516.09,1260.85,1514.2,1260.85z M1499.79,1128.25
																c-1.22,0-2.32,0.27-3.29,0.83c-2.45,1.42-3.8,4.58-3.8,8.9l0.01,90.6c0,9.75,6.85,21.6,15.25,26.43
																c3.7,2.12,7.07,2.51,9.51,1.1c2.45-1.42,3.8-4.58,3.8-8.9l-0.01-90.6l0,0c0-9.74-6.85-21.6-15.25-26.43
																C1503.78,1128.9,1501.66,1128.25,1499.79,1128.25z M1525.16,1156.61h0.05H1525.16z" class="color373b42 svgShape"></path>
                              </g>
                            </g>
                            <g fill="#000000" class="color000000 svgShape">
                              <g fill="#000000" class="color000000 svgShape">
                                <path fill="#f0f3f5" d="M1534.76,1634.07c0-11.26-7.87-24.9-17.6-30.48c-9.72-5.58-17.6-0.97-17.6,10.29l0.03,218.78
																c0,11.26,7.87,24.9,17.6,30.48c9.72,5.58,17.6,0.97,17.6-10.29L1534.76,1634.07z" class="colorf0f2f5 svgShape"></path>
                              </g>
                            </g>
                            <g fill="#000000" class="color000000 svgShape">
                              <g fill="#000000" class="color000000 svgShape">
                                <g fill="#000000" class="color000000 svgShape">
                                  <path fill="#373d42" d="M1524.93,1628.66c0,4.89-3.45,6.84-7.67,4.42c-4.27-2.45-7.67-8.33-7.67-13.22
																	c0-5.01,3.4-7,7.67-4.55C1521.48,1617.73,1524.93,1623.65,1524.93,1628.66z" class="color373b42 svgShape"></path>
                                </g>
                              </g>
                            </g>
                          </g>
                        </g>
                      </g>
                    </g>
                    <g fill="#000000" class="color000000 svgShape">
                      <g fill="#000000" class="color000000 svgShape">
                        <path fill="#373d42" d="M1623.09,2177.47c-28.19,16.28-51.09,3.24-51.18-29.16l-3.34-1165.85
												c-0.09-32.4,22.65-71.79,50.85-88.07l527.87-304.79c28.19-16.28,51.09-3.23,51.18,29.16l3.34,1165.85
												c0.09,32.4-22.65,71.79-50.85,88.07L1623.09,2177.47z" class="color373b42 svgShape"></path>
                        <path fill="#373d42" d="M1600.17,2186.45c-5.2,0-10.01-1.22-14.28-3.67c-10.23-5.89-15.89-18.13-15.94-34.47l-3.34-1165.85
												c-0.1-32.94,23.14-73.21,51.82-89.76l527.87-304.79c14.31-8.26,27.86-9.55,38.17-3.62
												c10.23,5.89,15.89,18.13,15.94,34.47l3.34,1165.85c0.09,32.94-23.16,73.21-51.82,89.76l-527.87,304.78
												C1615.68,2184,1607.54,2186.45,1600.17,2186.45z M2170.18,584.52c-6.68,0-14.15,2.27-21.93,6.76l-527.87,304.79
												c-27.59,15.93-49.96,54.68-49.87,86.38l3.33,1165.85c0.05,14.89,5.01,25.93,13.99,31.1c9.02,5.21,21.21,3.93,34.27-3.62
												l0.97,1.69l-0.97-1.69L2149.98,1871c27.59-15.93,49.96-54.68,49.87-86.38l-3.34-1165.85
												c-0.05-14.89-5.01-25.93-13.99-31.1C2178.87,585.56,2174.71,584.52,2170.18,584.52z" class="color373b42 svgShape"></path>
                      </g>
                      <g fill="#000000" class="color000000 svgShape">
                        <path fill="#ffffff" d="M2178.62,594.51c6.31,3.64,9.98,12.5,10.01,24.26l3.34,1165.86c0.04,13.97-4.74,29.99-13.5,45.17
												c-8.73,15.11-20.25,27.33-32.43,34.39l-527.86,304.77c-10.35,5.99-19.99,7.33-26.41,3.62
												c-6.31-3.64-9.98-12.5-10.01-24.26l-3.34-1165.86c-0.04-13.97,4.74-29.99,13.5-45.17c8.73-15.11,20.25-27.33,32.43-34.39
												l527.86-304.77C2162.56,592.14,2172.19,590.81,2178.62,594.51z" class="colorffffff svgShape"></path>
                        <path fill="#373d42" d="M1600.15,2176.58c-3.5,0-6.67-0.77-9.36-2.31c-6.94-4.02-10.95-13.47-10.98-25.95l-3.34-1165.86
												c-0.04-14.31,4.85-30.7,13.76-46.15c8.89-15.4,20.67-27.87,33.14-35.1l527.86-304.77c10.99-6.37,21.32-7.68,28.36-3.62
												c6.95,4.01,10.96,13.46,10.99,25.95l3.33,1165.86c0.05,14.31-4.83,30.69-13.75,46.14c-8.89,15.4-20.67,27.86-33.15,35.1
												l-527.85,304.77C1612.36,2174.57,1605.82,2176.58,1600.15,2176.58z M2170.2,594.38c-4.94,0-10.8,1.84-17.02,5.43
												l-527.86,304.77c-11.89,6.89-23.15,18.85-31.71,33.67c-8.57,14.86-13.28,30.55-13.24,44.19l3.34,1165.85
												c0.03,11.05,3.32,19.28,9.03,22.58c5.81,3.34,14.7,2.02,24.46-3.62l527.85-304.76c11.9-6.9,23.17-18.86,31.72-33.68
												c8.58-14.86,13.28-30.55,13.23-44.18l-3.33-1165.86c-0.03-11.05-3.32-19.28-9.04-22.58c0,0,0,0,0,0
												C2175.54,594.99,2173.02,594.38,2170.2,594.38z" class="color373b42 svgShape"></path>
                      </g>
                      <g fill="#000000" class="color000000 svgShape">
                        <g fill="#000000" class="color000000 svgShape">
                          <g fill="#000000" class="color000000 svgShape">
                            <g fill="#000000" class="color000000 svgShape">
                              <polyline fill="#ffffff" points="1648.97 1448.19 1648.52 1289.96 1786.23 1210.45" class="colorffffff svgShape"></polyline>
                              <path fill="#373d42" d="M1648.97,1450.14c-1.07,0-1.95-0.87-1.95-1.95l-0.45-158.24c0-0.7,0.37-1.34,0.97-1.69
															l137.7-79.5c0.91-0.54,2.12-0.23,2.67,0.71c0.53,0.93,0.21,2.12-0.72,2.66l-136.73,78.94l0.45,157.11
															C1650.92,1449.26,1650.05,1450.14,1648.97,1450.14C1648.97,1450.14,1648.97,1450.14,1648.97,1450.14z" class="color373b42 svgShape"></path>
                            </g>
                          </g>
                          <g fill="#000000" class="color000000 svgShape">
                            <g fill="#000000" class="color000000 svgShape">
                              <polyline fill="#ffffff" points="2121.41 1401.52 2121.86 1559.7 1984.2 1639.18" class="colorffffff svgShape"></polyline>
                              <path fill="#373d42" d="M1984.2,1641.13c-0.67,0-1.32-0.35-1.69-0.97c-0.53-0.93-0.21-2.12,0.72-2.66l136.69-78.91
															l-0.45-157.06c0-1.07,0.87-1.95,1.94-1.95c0.01,0,0.01,0,0.01,0c1.07,0,1.95,0.87,1.95,1.95l0.45,158.18
															c0,0.7-0.37,1.34-0.97,1.69l-137.67,79.48C1984.87,1641.05,1984.53,1641.13,1984.2,1641.13z" class="color373b42 svgShape"></path>
                            </g>
                          </g>
                          <g fill="#000000" class="color000000 svgShape">
                            <g fill="#000000" class="color000000 svgShape">
                              <polyline fill="#ffffff" points="1982.66 1097.04 2120.32 1017.56 2120.77 1175.8" class="colorffffff svgShape"></polyline>
                              <path fill="#373d42" d="M2120.78,1177.75c-1.07,0-1.95-0.87-1.95-1.95l-0.44-154.87l-134.75,77.79
															c-0.91,0.54-2.12,0.22-2.67-0.71c-0.53-0.93-0.21-2.12,0.72-2.66l137.67-79.48c0.61-0.35,1.34-0.35,1.95,0
															c0.6,0.35,0.97,0.99,0.97,1.69l0.45,158.23C2122.72,1176.87,2121.86,1177.74,2120.78,1177.75
															C2120.78,1177.75,2120.78,1177.75,2120.78,1177.75z" class="color373b42 svgShape"></path>
                            </g>
                          </g>
                          <g fill="#000000" class="color000000 svgShape">
                            <g fill="#000000" class="color000000 svgShape">
                              <polyline fill="#ffffff" points="1787.77 1752.59 1650.06 1832.09 1649.61 1673.91" class="colorffffff svgShape"></polyline>
                              <path fill="#373d42" d="M1650.06,1834.04c-0.33,0-0.67-0.09-0.97-0.26c-0.6-0.35-0.97-0.99-0.97-1.69l-0.45-158.18
															c0-1.07,0.87-1.95,1.94-1.95c0.01,0,0.01,0,0.01,0c1.07,0,1.95,0.87,1.95,1.95l0.44,154.82l134.79-77.82
															c0.91-0.54,2.11-0.23,2.66,0.71c0.53,0.93,0.21,2.12-0.72,2.66l-137.7,79.5
															C1650.73,1833.96,1650.4,1834.04,1650.06,1834.04z" class="color373b42 svgShape"></path>
                            </g>
                          </g>
                        </g>
                        <g fill="#000000" class="color000000 svgShape">
                          <g fill="#000000" class="color000000 svgShape">
                            <g fill="#000000" class="color000000 svgShape">
                              <path fill="#dbe0e4" d="M1807.84,965.4c8.29-4.79,15-0.96,15.03,8.56c0.03,9.53-6.64,21.15-14.93,25.94l-144.32,83.32
															c-8.29,4.79-15.07,0.93-15.1-8.6s6.71-21.11,15-25.9L1807.84,965.4z" class="colordbdee4 svgShape"></path>
                            </g>
                          </g>
                          <g fill="#000000" class="color000000 svgShape">
                            <g fill="#000000" class="color000000 svgShape">
                              <path fill="#ffffff" d="M1916.76,985.02c8.29-4.79,15-0.96,15.03,8.56s-6.64,21.15-14.93,25.94l-253.24,146.21
															c-8.29,4.79-15.07,0.93-15.1-8.6s6.71-21.11,15-25.9L1916.76,985.02z" class="colorffffff svgShape"></path>
                              <path fill="#373d42" d="M1656.88,1169.75c-1.77,0-3.43-0.42-4.9-1.27c-3.46-1.99-5.38-6.02-5.4-11.34
															c-0.03-10.29,6.98-22.41,15.97-27.59l253.24-146.21l0,0c4.65-2.69,9.12-3.06,12.59-1.07c3.44,1.98,5.35,6,5.37,11.32
															c0.03,10.33-6.95,22.46-15.91,27.63l-253.24,146.21C1661.91,1168.97,1659.29,1169.75,1656.88,1169.75z
															 M1917.73,986.71l-253.24,146.21c-7.76,4.48-14.06,15.34-14.03,24.21c0.02,3.87,1.23,6.7,3.45,7.97
															c2.23,1.29,5.32,0.91,8.72-1.05l253.24-146.21c7.72-4.46,13.99-15.34,13.96-24.24c-0.02-3.87-1.23-6.69-3.41-7.95
															C1924.21,984.37,1921.13,984.74,1917.73,986.71L1917.73,986.71z" class="color373b42 svgShape"></path>
                            </g>
                          </g>
                        </g>
                        <g fill="#000000" class="color000000 svgShape">
                          <g fill="#000000" class="color000000 svgShape">
                            <g fill="#000000" class="color000000 svgShape">
                              <path fill="#ffffff" d="M2120.77,1288.78c-5.32,9.92-105.03,199.08-235.34,274.33c-130.2,75.14-230.5,1.54-235.82-2.36
															c5.2-9.93,104.91-198.96,234.99-274.1C2014.92,1211.4,2115.46,1284.88,2120.77,1288.78z" class="colorffffff svgShape"></path>
                              <path fill="#373d42" d="M1767.15,1598.71c-66.31,0-111.53-31.13-118.7-36.38c-0.78-0.57-1.01-1.62-0.57-2.48
															c10.67-20.36,107.92-201.04,235.75-274.88c127.84-73.84,227.37-5.76,238.3,2.24c0.78,0.57,1.03,1.64,0.57,2.49
															l-0.3,0.55c-17.86,33.42-113.13,203.71-235.8,274.55C1842.49,1590.15,1801.92,1598.71,1767.15,1598.71z
															 M1652.12,1560.16c15.89,11.19,111.02,71.28,232.33,1.27c120.63-69.66,214.79-236.64,233.8-272.06
															c-15.94-11.2-111.21-71.17-232.67-1.03C1761.39,1360.08,1666.07,1533.84,1652.12,1560.16z" class="color373b42 svgShape"></path>
                            </g>
                          </g>
                          <g fill="#000000" class="color000000 svgShape">
                            <g fill="#000000" class="color000000 svgShape">
                              <path fill="#373d42" d="M1981.01,1369.48c0.24,60.96-42.53,134.92-95.58,165.64c-52.93,30.6-96.05,6.02-96.17-54.94
															c-0.24-60.96,42.53-135.04,95.58-165.64C1937.88,1283.82,1980.89,1308.51,1981.01,1369.48z" class="color373b42 svgShape"></path>
                            </g>
                          </g>
                          <g fill="#000000" class="color000000 svgShape">
                            <g fill="#000000" class="color000000 svgShape">
                              <g fill="#000000" class="color000000 svgShape">
                                <path fill="#1d6faa" d="M1884.89,1353.08c34.55-19.95,62.62-3.94,62.74,35.66c0.11,39.61-27.78,87.84-62.33,107.79
																c-34.47,19.9-62.55,3.99-62.66-35.62c-0.02-6.59,0.72-13.35,2.21-20.2c5.68,6.18,15.13,6.89,25.92,0.66
																c17.42-10.06,31.41-34.46,31.35-54.48c-0.03-12.31-5.35-20.09-13.44-21.85
																C1873.8,1360.35,1879.31,1356.3,1884.89,1353.08z" class="color1fb6ff svgShape"></path>
                              </g>
                            </g>
                          </g>
                        </g>
                      </g>
                      <g fill="#000000" class="color000000 svgShape">
                        <g fill="#000000" class="color000000 svgShape">
                          <g fill="#000000" class="color000000 svgShape">
                            <g fill="#000000" class="color000000 svgShape">
                              <path fill="#373d42" d="M1764.61,883.34c7.84-4.47,206.73-118.59,215.96-123.88c14.74-8.47,26.73-29.24,26.75-46.26
															l-0.03-31.01c-9.23,5.29-258.9,148.55-269.41,154.58l0,30.99C1737.89,884.8,1749.86,891.81,1764.61,883.34z" class="color373b42 svgShape"></path>
                              <path fill="#373d42" d="M1752.76,888.9c-2.89,0-5.59-0.69-7.98-2.07c-5.71-3.3-8.86-10.07-8.86-19.07l0.01-30.99
															c0-0.7,0.37-1.34,0.98-1.69c10.51-6.03,260.18-149.29,269.41-154.58c0.59-0.34,1.35-0.35,1.94,0
															c0.6,0.35,0.97,0.99,0.97,1.68l0.03,31.01c-0.02,17.67-12.46,39.18-27.72,47.95l-35.71,20.49
															c-59.96,34.41-174.29,100-180.25,103.39l0,0C1761.11,887.61,1756.74,888.9,1752.76,888.9z M1739.83,837.9l-0.01,29.86
															c0.01,7.55,2.46,13.12,6.91,15.69c4.42,2.56,10.42,1.91,16.91-1.8c0,0,0,0,0,0c5.9-3.37,120.27-68.98,180.24-103.39
															l35.71-20.48c14.19-8.16,25.75-28.15,25.77-44.57l-0.03-27.65C1976.36,702.18,1758.79,827.02,1739.83,837.9z" class="color373b42 svgShape"></path>
                            </g>
                          </g>
                          <g fill="#000000" class="color000000 svgShape">
                            <g fill="#000000" class="color000000 svgShape">
                              <g fill="#000000" class="color000000 svgShape">
                                <path fill="#ffffff" d="M1944.54,756.23c3.06-5.29,4.74-10.92,4.74-15.83c0-4.42-1.34-7.64-3.78-9.05
																c-2.41-1.39-5.79-0.97-9.54,1.17l-167.33,95.99c-4.25,2.44-8.28,6.71-11.35,12.02c-3.07,5.33-4.77,10.99-4.76,15.93
																c0,4.37,1.33,7.55,3.76,8.95c2.42,1.4,5.82,0.98,9.59-1.18l167.33-95.99
																C1937.44,765.81,1941.47,761.55,1944.54,756.23z" class="colorffffff svgShape"></path>
                              </g>
                            </g>
                            <g fill="#000000" class="color000000 svgShape">
                              <g fill="#000000" class="color000000 svgShape">
                                <path fill="#ffffff" d="M1987.93,731.34c3.06-5.29,4.74-10.91,4.74-15.83c0-4.42-1.34-7.63-3.78-9.04
																c-2.41-1.4-5.8-0.97-9.57,1.18c-4.25,2.44-8.28,6.71-11.35,12.02c-3.07,5.33-4.77,10.98-4.77,15.93
																c0,4.37,1.34,7.55,3.76,8.95c2.42,1.4,5.82,0.98,9.59-1.18C1980.82,740.93,1984.86,736.66,1987.93,731.34z" class="colorffffff svgShape"></path>
                              </g>
                            </g>
                            <g fill="#000000" class="color000000 svgShape">
                              <g fill="#000000" class="color000000 svgShape">
                                <path fill="#1d6faa" d="M1983.88,728.98c1.82-3.15,2.82-6.49,2.82-9.41c0-2.63-0.8-4.54-2.25-5.38
																c-1.43-0.83-3.45-0.58-5.69,0.7c-2.53,1.45-4.92,3.99-6.75,7.15c-1.83,3.17-2.84,6.53-2.83,9.47
																c0,2.6,0.79,4.49,2.23,5.32c1.44,0.83,3.46,0.58,5.7-0.7C1979.65,734.69,1982.05,732.15,1983.88,728.98z" class="color1fb6ff svgShape"></path>
                              </g>
                            </g>
                          </g>
                        </g>
                      </g>
                    </g>
                  </g>
                </g>
              </g>
            </g>
            <g fill="#000000" class="color000000 svgShape">
              <path fill="#373d42" d="M2006.41,634.81c10.83-6.25,10.74-16.4-0.01-22.65c-10.9-6.33-28.28-6.33-39.11-0.08
							c-11.11,6.41-11.17,16.48-0.27,22.82C1977.77,641.14,1995.3,641.22,2006.41,634.81z" class="color373b42 svgShape"></path>
            </g>
            <g fill="#000000" class="color000000 svgShape">
              <line x1="1568.79" x2="1462.53" y1="1058.12" y2="996.77" fill="#fff"></line>
              <path fill="#373d42" d="M1568.79,1060.07c-0.33,0-0.67-0.08-0.97-0.26l-106.26-61.35c-0.93-0.54-1.25-1.73-0.72-2.66
							c0.54-0.94,1.75-1.25,2.67-0.71l106.26,61.35c0.93,0.54,1.25,1.73,0.72,2.66C1570.12,1059.72,1569.46,1060.07,1568.79,1060.07
							z" class="color373b42 svgShape"></path>
            </g>
            <g fill="#000000" class="color000000 svgShape">
              <line x1="1571.71" x2="1465.45" y1="2079.89" y2="2018.54" fill="#fff"></line>
              <path fill="#373d42" d="M1571.71,2081.83c-0.33,0-0.67-0.08-0.97-0.26l-106.26-61.34c-0.93-0.54-1.25-1.73-0.72-2.66
							c0.54-0.94,1.75-1.25,2.67-0.71l106.26,61.34c0.93,0.54,1.25,1.73,0.72,2.66C1573.04,2081.48,1572.38,2081.83,1571.71,2081.83
							z" class="color373b42 svgShape"></path>
            </g>
          </g>
        </g>
      </g>
      <g fill="#000000" class="color000000 svgShape">
        <g fill="#000000" class="color000000 svgShape">
          <g fill="#000000" class="color000000 svgShape">
            <polygon fill="#373d42" points="1184.18 1065.7 1203.73 1054.35 1240.05 1127.73 1220.5 1139.09" class="color373b42 svgShape"></polygon>
            <path fill="#373d42" d="M1220.5,1141.04c-0.19,0-0.38-0.03-0.56-0.08c-0.52-0.16-0.94-0.52-1.18-1l-36.32-73.38
						c-0.46-0.92-0.12-2.03,0.76-2.55l19.55-11.36c0.48-0.27,1.04-0.33,1.55-0.18c0.52,0.16,0.94,0.52,1.18,1l36.32,73.38
						c0.46,0.92,0.12,2.03-0.76,2.55l-19.55,11.36C1221.18,1140.95,1220.84,1141.04,1220.5,1141.04z M1186.74,1066.47l34.58,69.88
						l16.17-9.39l-34.58-69.88L1186.74,1066.47z" class="color373b42 svgShape"></path>
          </g>
        </g>
        <g fill="#000000" class="color000000 svgShape">
          <g fill="#000000" class="color000000 svgShape">
            <polygon fill="#ffffff" points="1086.73 1009.44 1106.28 998.08 1203.73 1054.35 1184.18 1065.7" class="colorffffff svgShape"></polygon>
            <path fill="#373d42" d="M1184.18,1067.65c-0.34,0-0.67-0.09-0.97-0.26l-97.45-56.26c-0.6-0.35-0.97-0.99-0.97-1.68
						c0-0.7,0.37-1.34,0.97-1.69l19.55-11.36c0.61-0.35,1.35-0.35,1.96,0l97.45,56.26c0.6,0.35,0.97,0.99,0.97,1.68
						c0,0.7-0.37,1.34-0.97,1.69l-19.55,11.36C1184.86,1067.56,1184.52,1067.65,1184.18,1067.65z M1090.63,1009.44l93.56,54.01
						l15.65-9.1l-93.56-54.01L1090.63,1009.44z" class="color373b42 svgShape"></path>
          </g>
        </g>
        <g fill="#000000" class="color000000 svgShape">
          <g fill="#000000" class="color000000 svgShape">
            <polygon fill="#1d6faa" points="1184.18 1065.7 1220.5 1139.09 1123.06 1082.82 1086.73 1009.44" class="color1fb6ff svgShape"></polygon>
            <path fill="#373d42" d="M1220.5,1141.04c-0.34,0-0.67-0.09-0.97-0.26l-97.45-56.26c-0.34-0.19-0.6-0.48-0.77-0.82l-36.32-73.38
						c-0.38-0.77-0.21-1.7,0.41-2.28c0.63-0.59,1.57-0.69,2.31-0.27l97.45,56.26c0.34,0.19,0.6,0.48,0.77,0.82l36.32,73.38
						c0.38,0.77,0.21,1.7-0.41,2.28C1221.46,1140.86,1220.98,1141.04,1220.5,1141.04z M1124.54,1081.43l91.36,52.74l-33.2-67.08
						l-91.36-52.74L1124.54,1081.43z" class="color373b42 svgShape"></path>
          </g>
        </g>
      </g>
      <g fill="#000000" class="color000000 svgShape">
        <g opacity=".1" fill="#000000" class="color000000 svgShape">
          <g fill="#000000" class="color000000 svgShape">
            <path d="M938.92,1756.69c38.01,21.95,38.21,57.45,0.52,79.35l-260.17,151.19c-37.69,21.9-98.98,21.9-136.99-0.04l-261.8-151.15
						c-37.94-21.9-38.14-57.4-0.45-79.31l260.17-151.19c37.69-21.9,98.98-21.9,136.92,0L938.92,1756.69z" fill="#000000" class="color000000 svgShape"></path>
          </g>
        </g>
        <g fill="#000000" class="color000000 svgShape">
          <g fill="#000000" class="color000000 svgShape">
            <g fill="#000000" class="color000000 svgShape">
              <g fill="#000000" class="color000000 svgShape">
                <path fill="#bec7cd" d="M1002.91,1645.13l-0.31,103c-0.16,14.19-9.51,28.46-28.15,39.22l-260.19,151.34
								c-11.38,6.63-24.95,11.23-39.38,13.8c-19.34,3.51-40.23,3.43-59.49-0.39c-13.96-2.57-27.06-7.17-38.21-13.57l-261.74-151.18
								c-19.18-10.99-28.61-25.34-28.61-39.84l0.47-102.76c0,14.42,9.59,28.93,28.54,39.76l261.82,151.11
								c10.99,6.39,23.94,10.92,37.74,13.49c19.26,3.82,40.15,3.98,59.49,0.47c14.5-2.57,28.23-7.25,39.69-13.88l260.19-151.19
								C993.48,1673.67,1002.91,1659.4,1002.91,1645.13z" class="colorbec4cd svgShape"></path>
              </g>
            </g>
            <g fill="#000000" class="color000000 svgShape">
              <path fill="#dbe0e4" d="M674.89,1849.57v102.92c-19.34,3.51-40.23,3.43-59.49-0.39v-103
							C634.66,1852.92,655.55,1853.07,674.89,1849.57z" class="colordbdee4 svgShape"></path>
            </g>
            <g fill="#000000" class="color000000 svgShape">
              <g fill="#000000" class="color000000 svgShape">
                <path fill="#373d42" d="M645.97,1956.88c-25.21,0-50.48-5.55-69.74-16.63l-261.74-151.18c-19.09-10.97-29.6-25.74-29.6-41.58
								l0.48-102.74c0.01-1.07,0.88-1.94,1.95-1.94c0,0,0,0,0.01,0c1.07,0,1.94,0.88,1.94,1.95c0,14.12,10.04,28.01,27.53,38.08
								l261.86,151.06c37.33,21.67,97.88,21.73,134.96,0.13l260.19-151.18c17.45-10.18,27.1-23.5,27.18-37.53v-0.17
								c0-0.01,0-0.02,0-0.02v-0.01c0-1.07,0.88-1.94,1.95-1.94l0,0c1.08,0,1.95,0.88,1.95,1.95c0,0,0,0,0,0.01l0,0
								c0,0.08,0,0.15,0,0.23l-0.36,102.74c-0.14,15.67-10.48,30.21-29.12,40.97l-260.17,151.3
								C696.17,1951.38,671.09,1956.88,645.97,1956.88z M289.19,1660.75l-0.4,86.75c0,14.38,9.82,27.94,27.66,38.19l261.74,151.18
								c37.38,21.51,97.99,21.56,135.09,0.12l260.17-151.3c17.41-10.04,27.06-23.4,27.18-37.62l0.3-86.61
								c-4.61,9.27-13.17,17.75-25.17,24.75L715.58,1837.4c-38.16,22.24-100.45,22.18-138.88-0.12l-261.85-151.06
								C302.66,1679.21,293.85,1670.36,289.19,1660.75z" class="color373b42 svgShape"></path>
              </g>
            </g>
            <g fill="#000000" class="color000000 svgShape">
              <g fill="#000000" class="color000000 svgShape">
                <path fill="#ffffff" d="M974.29,1605.14c38.01,21.95,38.21,57.45,0.52,79.35l-260.17,151.19c-37.69,21.9-98.98,21.9-136.99-0.04
								l-261.8-151.15c-37.94-21.9-38.14-57.4-0.45-79.31l260.17-151.19c37.69-21.9,98.98-21.9,136.92,0L974.29,1605.14z" class="colorffffff svgShape"></path>
                <path fill="#373d42" d="M646.31,1853.99c-25.18,0-50.39-5.55-69.63-16.66l-261.79-151.15c-19.04-10.99-29.54-25.72-29.56-41.48
								c-0.02-15.65,10.32-30.28,29.1-41.2l260.17-151.2c38.18-22.17,100.46-22.18,138.87,0l261.8,151.15
								c19.08,11.01,29.6,25.77,29.62,41.54c0.02,15.64-10.31,30.27-29.09,41.19l-260.16,151.19
								C696.56,1848.45,671.45,1853.99,646.31,1853.99z M643.95,1439.52c-24.44,0-48.85,5.39-67.39,16.16l-260.17,151.2
								c-17.54,10.19-27.19,23.62-27.17,37.82c0.02,14.31,9.82,27.84,27.61,38.11l261.79,151.15c37.37,21.57,97.96,21.6,135.04,0.04
								l260.16-151.19c17.54-10.19,27.18-23.62,27.16-37.81c-0.02-14.32-9.85-27.87-27.67-38.17l-261.8-151.15
								C692.86,1444.91,668.38,1439.52,643.95,1439.52z" class="color373b42 svgShape"></path>
              </g>
            </g>
            <g opacity=".1" fill="#000000" class="color000000 svgShape">
              <path d="M704.77,1627.54c45.36,25.99,45.74,68.5,0.68,94.89c-44.89,26.29-118.29,26.53-163.65,0.54
							c-45.53-26.09-45.91-68.6-1.02-94.89C585.84,1601.69,659.23,1601.45,704.77,1627.54z" fill="#000000" class="color000000 svgShape"></path>
            </g>
          </g>
        </g>
        <g fill="#000000" class="color000000 svgShape">
          <g fill="#000000" class="color000000 svgShape">
            <g fill="#000000" class="color000000 svgShape">
              <path fill="#f0f3f5" d="M758.76,1239.11l-0.09,409.21c0.01,17.08-11.16,34.19-33.57,47.31c-44.89,26.29-118.29,26.53-163.65,0.54
							c-22.93-13.14-34.41-30.45-34.42-47.75l0.09-409.21c0.01,17.3,11.49,34.61,34.42,47.75c45.36,25.99,118.76,25.75,163.65-0.54
							C747.59,1273.3,758.76,1256.19,758.76,1239.11z" class="colorf0f2f5 svgShape"></path>
              <path fill="#373d42" d="M642.78,1717.42c-29.76,0-59.53-6.51-82.3-19.56c-22.82-13.07-35.39-30.63-35.4-49.44l0.08-409.21
							c0-1.08,0.88-1.95,1.95-1.95s1.95,0.87,1.95,1.95c0.01,17.35,11.89,33.71,33.44,46.06c44.82,25.68,117.35,25.44,161.7-0.53
							c21.02-12.31,32.6-28.5,32.6-45.59v-0.04c0-1.08,0.88-1.95,1.95-1.95s1.95,0.87,1.95,1.95v0.01c0,0.02,0,0.03,0,0.04
							l-0.09,409.15c0.02,18.54-12.25,35.94-34.54,48.99C703.2,1710.71,672.99,1717.42,642.78,1717.42z M529.06,1257.01
							l-0.08,391.41c0.01,17.35,11.89,33.71,33.43,46.06c44.82,25.68,117.34,25.43,161.7-0.53c21.04-12.32,32.62-28.52,32.6-45.62
							l0.08-391.37c-5.25,11.7-15.69,22.41-30.63,31.16c-45.42,26.6-119.71,26.84-165.6,0.54
							C545.15,1279.82,534.4,1268.94,529.06,1257.01z" class="color373b42 svgShape"></path>
            </g>
            <g fill="#000000" class="color000000 svgShape">
              <line x1="758.76" x2="758.68" y1="1239.11" y2="1598.42" fill="#fff"></line>
              <path fill="#373d42" d="M758.68,1600.37L758.68,1600.37c-1.07,0-1.95-0.87-1.95-1.95l0.08-359.31c0-1.08,0.88-1.95,1.95-1.95l0,0
							c1.07,0,1.95,0.87,1.95,1.95l-0.08,359.31C760.63,1599.5,759.76,1600.37,758.68,1600.37z" class="color373b42 svgShape"></path>
            </g>
            <g fill="#000000" class="color000000 svgShape">
              <path fill="#ffffff" d="M724.51,1191.54c45.36,25.99,45.74,68.5,0.68,94.89c-44.9,26.29-118.29,26.53-163.65,0.54
							c-45.53-26.09-45.91-68.6-1.02-94.89C605.58,1165.69,678.97,1165.45,724.51,1191.54z" class="colorffffff svgShape"></path>
              <path fill="#373d42" d="M642.87,1308.22c-29.76,0-59.53-6.51-82.3-19.56c-22.74-13.03-35.31-30.53-35.41-49.26
							c-0.08-18.57,12.12-35.97,34.37-48.99c45.51-26.65,119.96-26.9,165.95-0.55c22.63,12.96,35.14,30.4,35.23,49.09
							c0.08,18.61-12.18,36.08-34.54,49.17C703.29,1301.51,673.08,1308.22,642.87,1308.22z M643,1174.08
							c-29.56,0-59.12,6.56-81.5,19.68c-20.99,12.29-32.51,28.49-32.44,45.61c0.08,17.29,11.96,33.59,33.44,45.9
							c44.82,25.68,117.35,25.44,161.7-0.53c21.11-12.36,32.68-28.62,32.6-45.78c-0.08-17.25-11.9-33.49-33.27-45.73l0,0
							C701.25,1180.46,672.12,1174.08,643,1174.08z" class="color373b42 svgShape"></path>
            </g>
            <g fill="#000000" class="color000000 svgShape">
              <path fill="#373d42" d="M703.87,1000.49l-0.05,231.25c0,8.98-5.87,17.97-17.64,24.86c-23.59,13.82-62.17,13.94-86.01,0.28
							c-12.05-6.91-18.09-16-18.09-25.09l0.05-231.25c0,9.09,6.04,18.19,18.09,25.09c23.84,13.66,62.41,13.53,86.01-0.28
							C698.01,1018.45,703.88,1009.46,703.87,1000.49z" class="color373b42 svgShape"></path>
              <path fill="#373d42" d="M642.92,1268.97c-15.81,0-31.61-3.46-43.71-10.39c-12.29-7.04-19.07-16.55-19.07-26.79l0.05-231.25
							c0-1.08,0.88-1.95,1.95-1.95l0,0c1.07,0,1.95,0.87,1.95,1.95c0,8.77,6.08,17.08,17.1,23.4c23.29,13.35,61,13.22,84.06-0.27
							c10.75-6.3,16.68-14.54,16.68-23.18l0,0c0-1.08,0.88-1.95,1.95-1.95l0,0c1.07,0,1.95,0.87,1.95,1.95l-0.05,231.25
							c0.01,10.09-6.6,19.52-18.61,26.55C675.01,1265.4,658.97,1268.97,642.92,1268.97z M584.09,1013.58l-0.05,218.21
							c0.01,8.78,6.08,17.09,17.11,23.41c23.31,13.34,61.01,13.22,84.05-0.28c10.76-6.3,16.68-14.53,16.68-23.18l0.05-218.2
							c-3.14,5.03-8.11,9.62-14.71,13.49c-24.14,14.13-63.6,14.25-87.96,0.29C592.42,1023.41,587.29,1018.73,584.09,1013.58z" class="color373b42 svgShape"></path>
            </g>
          </g>
          <g fill="#000000" class="color000000 svgShape">
            <g fill="#000000" class="color000000 svgShape">
              <g fill="#000000" class="color000000 svgShape">
                <g fill="#000000" class="color000000 svgShape">
                  <path fill="#bec7cd" d="M974.59,332.2l-99.07-56.74c-63.73-36.62-151.4-31.46-248.08,24.11
									c-79.13,45.38-152.11,117.44-210.88,202.18c-9.48,13.68-18.62,27.65-27.31,41.87c-7.62,12.38-14.87,24.99-21.76,37.72
									c-8,14.63-15.55,29.52-22.62,44.6c-44.02,93.4-70,192.87-69.95,284.53c0.08,113.52,40.04,193.22,104.66,230.2l98.14,56.28
									c-64.05-37.23-103.72-116.69-103.7-229.81c-0.14-91.21,25.72-190.33,69.48-283.28c6.97-15.06,14.56-30.01,22.49-44.68
									c6.86-12.83,14.11-25.43,21.69-37.75c8.63-14.26,17.77-28.23,27.19-41.95c58.93-85.15,132.19-157.56,211.6-203.12
									C823.15,300.81,910.83,295.64,974.59,332.2z" class="colorbec4cd svgShape"></path>
                </g>
                <g fill="#000000" class="color000000 svgShape">
                  <path fill="#dbe0e4" d="M514.87,559.5l-98.31-57.74c-9.48,13.68-18.62,27.65-27.31,41.87c-7.62,12.38-14.87,24.99-21.76,37.72
									c-8,14.63-15.55,29.52-22.62,44.6l98.63,57.93c6.97-15.06,14.56-30.01,22.49-44.68c6.86-12.83,14.11-25.43,21.69-37.75
									C496.31,587.18,505.45,573.21,514.87,559.5z" class="colordbdee4 svgShape"></path>
                </g>
                <g fill="#000000" class="color000000 svgShape">
                  <path fill="#373d42" d="M477.71,1198.91c-0.33,0-0.66-0.08-0.97-0.26l-0.02,0l-98.13-56.28
									c-68.04-38.93-105.56-121.28-105.64-231.89c-0.03-102.86,32.93-220.08,92.81-330.07c7.11-13.13,14.45-25.86,21.81-37.81
									c65.36-106.95,150.2-193.87,238.89-244.72c94.14-54.1,182.93-62.67,250.02-24.11l99.06,56.74l0,0
									c0.94,0.53,1.26,1.72,0.72,2.66c-0.53,0.93-1.72,1.25-2.66,0.72l0,0c-65.89-37.78-153.32-29.2-246.18,24.17
									c-88.54,50.79-173.1,137.59-238.09,244.39c-7.53,12.22-14.81,24.89-21.64,37.66c-59.29,109.25-91.87,225.39-91.74,327.04
									c-0.02,108.57,36.45,189.58,102.7,228.11l0.01,0.01c0.01,0,0.01,0,0.02,0c0.93,0.54,1.24,1.73,0.71,2.66
									C479.03,1198.56,478.38,1198.91,477.71,1198.91z M783.65,253.9c-47.65,0-100.49,15.89-155.23,47.36
									C540.28,351.8,455.93,438.23,390.9,544.64c-7.32,11.89-14.63,24.55-21.71,37.63c-59.57,109.43-92.37,225.99-92.34,328.21
									c0.08,109.15,36.9,190.3,103.68,228.51l67.2,38.54c-49.08-44.1-75.69-117.28-75.67-210.37
									c-0.12-102.29,32.62-219.09,92.21-328.89c6.86-12.83,14.18-25.56,21.75-37.85C551.35,493.07,636.4,405.8,725.5,354.68
									c79.06-45.44,154.39-58.76,216.28-39.03l-67.22-38.5C847.52,261.62,816.85,253.9,783.65,253.9z" class="color373b42 svgShape"></path>
                </g>
                <g fill="#000000" class="color000000 svgShape">
                  <path fill="#ffffff" d="M373.97,967.18c-0.07-225.55,157.78-499.05,352.45-610.79c194.67-111.74,352.63-19.51,352.7,206.04
									c0.07,225.65-157.78,499.15-352.45,610.89C532.01,1285.05,374.04,1192.83,373.97,967.18z" class="colorffffff svgShape"></path>
                  <path fill="#373d42" d="M570.36,1222.87c-34.1,0-65.6-7.98-93.39-24.06c-67.64-39.15-104.91-121.41-104.95-231.62l0,0
									C371.95,741.35,530.5,466.6,725.45,354.69c94.48-54.23,183.52-62.68,250.7-23.79c67.62,39.14,104.89,121.37,104.92,231.52
									c0.07,225.88-158.48,500.68-353.43,612.58C672.24,1206.81,618.71,1222.87,570.36,1222.87z M375.92,967.18
									c0.04,108.77,36.62,189.82,103,228.25c65.92,38.15,153.57,29.71,246.79-23.8c193.87-111.28,351.54-384.56,351.47-609.2
									c-0.03-108.71-36.6-189.73-102.98-228.15c-65.95-38.16-153.6-29.71-246.81,23.8C533.52,469.36,375.85,742.6,375.92,967.18
									L375.92,967.18z" class="color373b42 svgShape"></path>
                </g>
              </g>
            </g>
            <g fill="#000000" class="color000000 svgShape">
              <path fill="#1d6faa" d="M995.3,610.54c-0.05-171.92-120.48-242.21-268.85-157.04c-148.38,85.17-268.79,293.7-268.74,465.62
							c0.05,172.01,120.56,242.26,268.93,157.09C875.02,991.04,995.36,782.55,995.3,610.54" class="color1fb6ff svgShape"></path>
              <path fill="#373d42" d="M607.45,1114.45c-26.09,0-50.2-6.11-71.47-18.42c-51.72-29.93-80.21-92.76-80.23-176.91
							C455.7,746.84,576.7,537.2,725.48,451.81c72.15-41.43,140.19-47.87,191.56-18.13c51.7,29.92,80.19,92.73,80.21,176.86
							c0.05,172.33-120.91,381.99-269.64,467.35C685.3,1102.18,644.4,1114.45,607.45,1114.45z M845.6,419.17
							c-36.26,0-76.48,12.09-118.18,36.02C579.72,539.97,459.6,748.08,459.65,919.12c0.02,82.7,27.83,144.33,78.28,173.53
							c50.15,29.02,116.8,22.57,187.74-18.14c147.65-84.75,267.73-292.89,267.68-463.97c-0.02-82.68-27.82-144.29-78.26-173.49
							C894.45,425.1,870.99,419.17,845.6,419.17z" class="color373b42 svgShape"></path>
            </g>
            <g fill="#000000" class="color000000 svgShape">
              <path fill="#ffffff" d="M913.98,657.23c-0.04-119.9-84.02-168.92-187.51-109.53C622.99,607.11,539,752.54,539.04,872.44
							c0.04,119.97,84.08,168.96,187.56,109.56C830.09,922.6,914.01,777.2,913.98,657.23" class="colorffffff svgShape"></path>
              <path fill="#373d42" d="M643.48,1009.27c-18.3,0-35.22-4.29-50.14-12.93c-36.25-20.98-56.23-64.98-56.25-123.9
							c-0.04-120.34,84.48-266.77,188.42-326.43c50.51-29,98.17-33.49,134.19-12.65c36.24,20.98,56.22,64.97,56.23,123.87
							c0.04,120.37-84.46,266.82-188.35,326.46C697.97,1000.68,669.35,1009.27,643.48,1009.27z M809.57,524.36
							c-25.18,0-53.14,8.4-82.13,25.04c-102.85,59.03-186.49,203.95-186.45,323.05c0.02,57.46,19.3,100.26,54.3,120.52
							c34.78,20.14,81.07,15.63,130.34-12.65c102.82-59.01,186.43-203.94,186.39-323.08l0,0c-0.02-57.45-19.3-100.24-54.29-120.49
							C843.43,528.47,827.17,524.36,809.57,524.36z" class="color373b42 svgShape"></path>
            </g>
            <g fill="#000000" class="color000000 svgShape">
              <path fill="#1d6faa" d="M829.17,705.93c-0.02-65.66-46.01-92.5-102.67-59.97c-56.66,32.53-102.65,112.16-102.63,177.82
							c0.02,65.69,46.04,92.52,102.71,59.99C783.23,851.24,829.19,771.62,829.17,705.93" class="color1fb6ff svgShape"></path>
              <path fill="#373d42" d="M681.05,899.58c-10.17,0-19.59-2.39-27.9-7.2c-20.13-11.65-31.23-36.02-31.23-68.6
							c-0.02-66.18,46.45-146.7,103.61-179.51c27.94-16.04,54.35-18.5,74.35-6.92c20.13,11.65,31.23,36.01,31.23,68.59
							c0.02,66.19-46.45,146.73-103.58,179.53C711.18,894.84,695.36,899.58,681.05,899.58z M771.99,634.05
							c-13.64,0-28.79,4.56-44.53,13.6c-56.07,32.19-101.67,111.2-101.65,176.13c0.01,31.13,10.41,54.3,29.28,65.23
							c18.77,10.85,43.78,8.39,70.5-6.93c56.06-32.17,101.64-111.19,101.62-176.14c-0.01-31.13-10.42-54.29-29.29-65.21
							C790.24,636.26,781.48,634.05,771.99,634.05z" class="color373b42 svgShape"></path>
            </g>
            <g fill="#000000" class="color000000 svgShape">
              <path fill="#373d42" d="M723.31,799.62c1.09-0.47,2.11-1.01,3.2-1.64c15.83-9.12,28.62-31.27,28.54-49.51
							c0-1.25-0.08-2.49-0.23-3.66c-1.48-14.42-11.93-20.51-25.11-14.66c-1.09,0.47-2.11,1.01-3.2,1.64
							c-15.75,9.04-28.54,31.19-28.54,49.43c0,1.33,0.08,2.57,0.23,3.82C699.68,799.39,710.21,805.47,723.31,799.62" class="color373b42 svgShape"></path>
              <path fill="#373d42" d="M713.89,803.77c-3.08,0-5.94-0.72-8.44-2.17c-5.13-2.97-8.4-8.78-9.18-16.36
							c-0.15-1.29-0.24-2.62-0.24-4.02c0-18.84,13.24-41.78,29.52-51.12c1.16-0.67,2.24-1.24,3.4-1.74
							c6.91-3.08,13.56-3.14,18.66-0.19c5.12,2.97,8.37,8.81,9.15,16.44c0.16,1.19,0.24,2.52,0.24,3.86
							c0.08,18.8-13.17,41.78-29.51,51.2c-1.16,0.66-2.23,1.24-3.4,1.74C720.56,802.98,717.1,803.77,713.89,803.77z M739.14,729.91
							c-2.67,0-5.61,0.67-8.65,2.03c-1.04,0.45-1.99,0.96-3.02,1.55c-15.19,8.72-27.56,30.14-27.56,47.74
							c0,1.24,0.08,2.41,0.22,3.59c0.65,6.34,3.24,11.09,7.26,13.42c4,2.31,9.36,2.18,15.12-0.39c0.01,0,0.02-0.01,0.03-0.01
							c1.03-0.44,1.97-0.95,2.99-1.53c15.27-8.8,27.63-30.25,27.56-47.81c0-1.16-0.07-2.33-0.22-3.41
							c-0.65-6.42-3.22-11.2-7.23-13.52C743.75,730.45,741.55,729.91,739.14,729.91z" class="color373b42 svgShape"></path>
            </g>
          </g>
        </g>
      </g>
      <g fill="#000000" class="color000000 svgShape">
        <g fill="#000000" class="color000000 svgShape">
          <g fill="#000000" class="color000000 svgShape">
            <g fill="#000000" class="color000000 svgShape">
              <path fill="#dbe0e4" d="M1235.44,1024.1c-4.05-2.42-9.75-2.03-15.98,1.56c-12.4,7.09-22.38,24.4-22.38,38.67
							c0.08,7.09,2.57,12.01,6.55,14.35L723.31,799.62l-25.11-14.58c-0.16-1.25-0.23-2.5-0.23-3.82c0-18.25,12.79-40.39,28.54-49.43
							c1.09-0.62,2.11-1.17,3.2-1.64l25.11,14.66L1235.44,1024.1z" class="colordbdee4 svgShape"></path>
              <path fill="#373d42" d="M1203.62,1080.63c-0.33,0-0.67-0.08-0.98-0.26L697.22,786.73c-0.53-0.31-0.88-0.85-0.95-1.45
							c-0.16-1.32-0.24-2.65-0.24-4.06c0-18.85,13.24-41.78,29.51-51.12c1.16-0.67,2.24-1.24,3.4-1.74
							c0.56-0.25,1.22-0.21,1.75,0.11l25.1,14.66l480.4,279.16c0.08,0.05,0.17,0.1,0.24,0.14c0.92,0.55,1.23,1.74,0.69,2.67
							c-0.56,0.93-1.74,1.23-2.67,0.7l-0.19-0.11c-3.5-1.98-8.55-1.37-13.84,1.68c-11.8,6.76-21.4,23.35-21.4,36.98
							c0.07,6.08,2.05,10.58,5.59,12.67c0.92,0.54,1.23,1.74,0.69,2.66C1204.94,1080.28,1204.29,1080.63,1203.62,1080.63z
							 M700.04,783.85l24.26,14.08l472.05,274.27c-0.78-2.3-1.2-4.94-1.23-7.85c0-14.9,10.48-33.01,23.36-40.38
							c2.63-1.52,5.21-2.52,7.65-3.01L729.6,732.34c-0.71,0.34-1.39,0.72-2.12,1.14c-15.19,8.72-27.55,30.14-27.55,47.74
							C699.92,782.13,699.96,782.99,700.04,783.85z" class="color373b42 svgShape"></path>
            </g>
          </g>
          <g fill="#000000" class="color000000 svgShape">
            <g fill="#000000" class="color000000 svgShape">
              <path fill="#ffffff" d="M1219.47,1025.63c12.35-7.13,22.43-1.44,22.47,12.81c0.04,14.24-9.98,31.55-22.33,38.68
							c-12.4,7.16-22.48,1.47-22.52-12.78C1197.05,1050.09,1207.07,1032.79,1219.47,1025.63z" class="colorffffff svgShape"></path>
              <path fill="#373d42" d="M1209.51,1082.17c-2.47,0-4.78-0.59-6.83-1.76c-4.84-2.79-7.52-8.49-7.54-16.07
							c-0.05-14.81,10.43-32.93,23.35-40.39l0.97,1.69l-0.97-1.69c6.64-3.83,12.97-4.39,17.85-1.58c4.84,2.79,7.52,8.5,7.55,16.07
							c0.05,14.81-10.4,32.92-23.3,40.37C1216.72,1081.04,1212.94,1082.17,1209.51,1082.17z M1229.5,1024.5
							c-2.73,0-5.82,0.95-9.06,2.82c-11.85,6.84-21.45,23.44-21.4,37.01c0.02,6.13,2,10.63,5.59,12.7c3.63,2.1,8.6,1.52,14.01-1.6
							c11.82-6.83,21.4-23.41,21.35-36.98c-0.02-6.13-2-10.64-5.59-12.7C1232.96,1024.91,1231.31,1024.5,1229.5,1024.5z" class="color373b42 svgShape"></path>
            </g>
          </g>
        </g>
      </g>
      <g fill="#000000" class="color000000 svgShape">
        <g fill="#000000" class="color000000 svgShape">
          <g fill="#000000" class="color000000 svgShape">
            <g fill="#000000" class="color000000 svgShape">
              <path fill="#373d42" d="M1220.89,985.72l19.54-11.36l-36.62,31.27c-3.78-2.1-12.93,5.71-19.54,11.36L1220.89,985.72z" class="color373b42 svgShape"></path>
              <path fill="#373d42" d="M1184.27,1018.94c-0.55,0-1.1-0.23-1.48-0.68c-0.69-0.82-0.6-2.05,0.22-2.75l36.62-31.27
							c0.08-0.08,0.18-0.14,0.28-0.21l19.55-11.36c0.88-0.5,1.99-0.27,2.57,0.56c0.58,0.82,0.44,1.95-0.33,2.61l-36.62,31.27
							c-0.61,0.53-1.48,0.62-2.21,0.22c-2.56-1.4-12.12,6.69-16.78,10.66l-0.56,0.47
							C1185.17,1018.78,1184.72,1018.94,1184.27,1018.94z M1203.2,1003.39c0.07,0.01,0.14,0.02,0.2,0.04l19.39-16.56l-0.75,0.44
							L1203.2,1003.39z" class="color373b42 svgShape"></path>
            </g>
          </g>
          <g fill="#000000" class="color000000 svgShape">
            <g fill="#000000" class="color000000 svgShape">
              <polygon fill="#ffffff" points="1123.45 929.46 1142.99 918.1 1240.44 974.36 1220.89 985.72" class="colorffffff svgShape"></polygon>
              <path fill="#373d42" d="M1220.89,987.67c-0.33,0-0.67-0.09-0.97-0.26l-97.45-56.26c-0.6-0.35-0.97-0.99-0.97-1.68
							c0-0.7,0.37-1.34,0.97-1.69l19.55-11.36c0.61-0.35,1.35-0.35,1.96,0l97.45,56.26c0.6,0.35,0.97,0.99,0.97,1.68
							c0,0.7-0.37,1.34-0.97,1.69l-19.55,11.36C1221.57,987.58,1221.23,987.67,1220.89,987.67z M1127.33,929.45l93.56,54.01
							l15.65-9.1l-93.56-54.01L1127.33,929.45z" class="color373b42 svgShape"></path>
            </g>
          </g>
          <g fill="#000000" class="color000000 svgShape">
            <g fill="#000000" class="color000000 svgShape">
              <polygon fill="#1d6faa" points="1220.89 985.72 1184.27 1016.99 1086.83 960.73 1123.45 929.46" class="color1fb6ff svgShape"></polygon>
              <path fill="#373d42" d="M1184.27,1018.94c-0.34,0-0.67-0.09-0.97-0.26l-97.45-56.26c-0.55-0.32-0.91-0.88-0.97-1.51
							c-0.06-0.63,0.2-1.25,0.68-1.66l36.62-31.27c0.62-0.53,1.52-0.62,2.24-0.21l97.45,56.26c0.55,0.32,0.91,0.88,0.97,1.51
							c0.06,0.63-0.2,1.25-0.68,1.66l-36.62,31.27C1185.18,1018.78,1184.73,1018.94,1184.27,1018.94z M1090.19,960.42l93.86,54.19
							l33.47-28.58l-93.86-54.19L1090.19,960.42z" class="color373b42 svgShape"></path>
            </g>
          </g>
        </g>
      </g>
      <g fill="#000000" class="color000000 svgShape">
        <g fill="#000000" class="color000000 svgShape">
          <path fill="#ffffff" d="M1110.81,2150.67c-38.6,22.29-38.8,58.4-0.39,80.73c38.35,22.29,100.7,22.29,139.3,0
					c38.54-22.25,38.74-58.37,0.39-80.65C1211.7,2128.42,1149.35,2128.42,1110.81,2150.67z" class="colorffffff svgShape"></path>
          <path fill="#373d42" d="M1179.98,2250c-25.58,0-51.12-5.64-70.54-16.92c-19.14-11.13-29.68-26.03-29.66-41.95
					c0.02-16.01,10.7-30.98,30.05-42.15l0,0c39.04-22.55,102.4-22.5,141.26,0.07c19.11,11.11,29.63,26,29.6,41.91
					c-0.02,16-10.68,30.96-30,42.11C1231.17,2244.36,1205.56,2250,1179.98,2250z M1180.44,2135.94c-24.85,0-49.7,5.47-68.66,16.41
					l0,0c-18.1,10.45-28.08,24.22-28.1,38.78c-0.02,14.47,9.82,28.17,27.72,38.57c37.74,21.93,99.36,21.93,137.35,0
					c18.07-10.43,28.03-24.19,28.05-38.75c0.02-14.47-9.81-28.15-27.67-38.53C1230.23,2141.44,1205.34,2135.94,1180.44,2135.94z
					 M1110.81,2150.67h0.05H1110.81z" class="color373b42 svgShape"></path>
        </g>
      </g>
      <g fill="#000000" class="color000000 svgShape">
        <g fill="#000000" class="color000000 svgShape">
          <g fill="#000000" class="color000000 svgShape">
            <g fill="#000000" class="color000000 svgShape">
              <path fill="#ffffff" d="M1116.42,1976.48l0.75,207.91c0.03,9.35,6.18,18.69,18.47,25.84c24.7,14.35,64.86,14.35,89.72,0
							c12.48-7.21,18.72-16.68,18.7-26.13l-0.75-207.91c0.03,9.46-6.21,18.92-18.7,26.13c-24.86,14.35-65.02,14.35-89.72,0
							C1122.6,1995.17,1116.45,1985.83,1116.42,1976.48z" class="colorffffff svgShape"></path>
            </g>
          </g>
          <g fill="#000000" class="color000000 svgShape">
            <g fill="#000000" class="color000000 svgShape">
              <path fill="#dbe0e4" d="M1134.9,2002.32c12.27,7.13,28.36,10.7,44.49,10.75v207.87c-15.88-0.15-31.66-3.69-43.74-10.71
							c-12.3-7.15-18.45-16.49-18.47-25.84l-0.75-207.92C1116.45,1985.83,1122.6,1995.17,1134.9,2002.32z" class="colordbdee4 svgShape"></path>
            </g>
          </g>
          <g fill="#000000" class="color000000 svgShape">
            <g fill="#000000" class="color000000 svgShape">
              <path fill="#373d42" d="M1180.45,2222.9c-16.61,0-33.18-3.66-45.78-10.98c-12.5-7.27-19.42-17.04-19.45-27.51l-0.75-207.92l0,0
							c0-1.08,0.87-1.95,1.94-1.96h0.01c1.07,0,1.94,0.87,1.95,1.94l0,0c0.03,9.03,6.25,17.61,17.51,24.16
							c24.11,14.02,63.47,14.01,87.76,0c11.44-6.61,17.74-15.29,17.72-24.44l0,0v0c0-1.07,0.87-1.95,1.94-1.95h0.01
							c1.07,0,1.94,0.87,1.95,1.94l0.75,207.92c0.03,10.6-6.95,20.48-19.67,27.83C1213.66,2219.24,1197.05,2222.9,1180.45,2222.9z
							 M1118.42,1989.78l0.7,194.61c0.03,9.03,6.25,17.61,17.51,24.16c24.11,14.02,63.49,14.02,87.76,0
							c11.45-6.62,17.75-15.3,17.72-24.44l-0.7-194.63c-3.29,5.44-8.64,10.39-15.81,14.53c-25.36,14.64-66.49,14.64-91.68,0
							C1126.93,1999.94,1121.69,1995.1,1118.42,1989.78z" class="color373b42 svgShape"></path>
            </g>
          </g>
          <g fill="#000000" class="color000000 svgShape">
            <g fill="#000000" class="color000000 svgShape">
              <path fill="#ffffff" d="M1135.15,1950.33c-24.86,14.35-24.99,37.62-0.25,51.99c24.7,14.35,64.86,14.35,89.72,0
							c24.82-14.33,24.95-37.59,0.25-51.94C1200.13,1936,1159.97,1936,1135.15,1950.33z" class="colorffffff svgShape"></path>
              <path fill="#373d42" d="M1179.7,2014.99c-16.6,0-33.18-3.66-45.78-10.98c-12.56-7.29-19.46-17.1-19.45-27.62
							c0.02-10.57,7.01-20.43,19.71-27.75c25.33-14.62,66.44-14.6,91.68,0.05c12.53,7.29,19.42,17.08,19.41,27.59
							c-0.02,10.57-7,20.41-19.67,27.73C1212.92,2011.33,1196.3,2014.99,1179.7,2014.99z M1179.99,1941.53
							c-15.88,0-31.76,3.49-43.87,10.48l0,0c-11.44,6.6-17.74,15.26-17.76,24.38c-0.02,9.06,6.21,17.67,17.51,24.24
							c24.11,14.02,63.47,14.01,87.76,0c11.41-6.59,17.7-15.24,17.72-24.36c0.01-9.06-6.19-17.66-17.47-24.21
							C1211.81,1945.04,1195.9,1941.53,1179.99,1941.53z M1135.15,1950.33h0.05H1135.15z" class="color373b42 svgShape"></path>
            </g>
          </g>
        </g>
      </g>
      <g fill="#000000" class="color000000 svgShape">
        <g fill="#000000" class="color000000 svgShape">
          <g fill="#000000" class="color000000 svgShape">
            <g fill="#000000" class="color000000 svgShape">
              <path fill="#ffffff" d="M1137.8,1832.29l0.5,138.35c0.02,6.22,4.11,12.43,12.29,17.18c16.43,9.55,43.13,9.55,59.67,0
							c8.3-4.79,12.45-11.09,12.43-17.38l-0.5-138.35c0.02,6.29-4.13,12.59-12.43,17.38c-16.53,9.55-43.24,9.55-59.67,0
							C1141.91,1844.72,1137.82,1838.51,1137.8,1832.29z" class="colorffffff svgShape"></path>
            </g>
          </g>
          <g fill="#000000" class="color000000 svgShape">
            <g fill="#000000" class="color000000 svgShape">
              <path fill="#dbe0e4" d="M1150.09,1849.47c8.09,4.7,18.67,7.06,29.3,7.13v138.32c-10.46-0.14-20.84-2.48-28.8-7.1
							c-8.18-4.75-12.27-10.96-12.29-17.18l-0.5-138.35C1137.82,1838.51,1141.91,1844.72,1150.09,1849.47z" class="colordbdee4 svgShape"></path>
            </g>
          </g>
          <g fill="#000000" class="color000000 svgShape">
            <g fill="#000000" class="color000000 svgShape">
              <path fill="#373d42" d="M1180.38,1996.89c-11.15,0-22.3-2.46-30.77-7.38c-8.53-4.96-13.24-11.66-13.26-18.86l-0.49-138.28
							c0-0.02,0-0.05,0-0.07c0-1.07,0.87-1.95,1.94-1.95h0.01c1.07,0,1.94,0.87,1.95,1.94v0.04c0.03,5.75,4.04,11.24,11.31,15.46
							c15.86,9.22,41.76,9.21,57.71,0c7.41-4.28,11.48-9.85,11.46-15.69c-0.01-1.08,0.87-1.95,1.94-1.96h0.01
							c1.07,0,1.94,0.87,1.95,1.94l0.5,138.35c0.02,7.29-4.74,14.07-13.41,19.07C1202.71,1994.43,1191.54,1996.89,1180.38,1996.89z
							 M1139.79,1843.26l0.46,127.37c0.02,5.77,4.04,11.27,11.32,15.5c15.86,9.22,41.74,9.21,57.71,0
							c7.4-4.28,11.47-9.85,11.46-15.69l-0.46-127.39c-2.25,3-5.47,5.75-9.55,8.1c-17.04,9.84-44.67,9.84-61.62,0
							C1145.15,1848.86,1142.01,1846.19,1139.79,1843.26z" class="color373b42 svgShape"></path>
            </g>
          </g>
          <g fill="#000000" class="color000000 svgShape">
            <g fill="#000000" class="color000000 svgShape">
              <path fill="#1d6faa" d="M1150.26,1814.9c-16.53,9.55-16.62,25.02-0.17,34.58c16.43,9.55,43.13,9.55,59.67,0
							c16.51-9.53,16.59-25,0.17-34.54C1193.47,1805.37,1166.76,1805.37,1150.26,1814.9z" class="color1fb6ff svgShape"></path>
              <path fill="#373d42" d="M1179.88,1858.54c-11.15,0-22.3-2.46-30.78-7.38c-8.55-4.98-13.26-11.7-13.25-18.94
							c0.01-7.27,4.77-14.02,13.42-19.01l0,0c17.03-9.83,44.66-9.82,61.62,0.03c8.54,4.96,13.25,11.68,13.23,18.91
							c-0.01,7.27-4.77,14.02-13.41,19.01C1202.21,1856.08,1191.04,1858.54,1179.88,1858.54z M1151.23,1816.58
							c-7.39,4.27-11.47,9.83-11.47,15.65c-0.01,5.78,4.01,11.31,11.31,15.56c15.86,9.22,41.76,9.21,57.71,0
							c7.39-4.26,11.45-9.81,11.46-15.64c0.01-5.78-4.01-11.3-11.3-15.53C1193.07,1807.39,1167.17,1807.38,1151.23,1816.58
							L1151.23,1816.58z" class="color373b42 svgShape"></path>
            </g>
          </g>
          <g fill="#000000" class="color000000 svgShape">
            <linearGradient id="SVGID_1_" x1="1179.983" x2="1179.983" y1="1861.535" y2="1673.066" gradientUnits="userSpaceOnUse">
              <stop offset="0" stop-color="#1fa1ff" stop-opacity=".9" class="stopColor1fb6ff svgShape"></stop>
              <stop offset="1" stop-color="#ffffff" stop-opacity="0" class="stopColorffffff svgShape"></stop>
            </linearGradient>
            <path fill="url(#SVGID_1_)" d="M1219.71,1664.33v167.5c-0.2,5.73-4.09,11.37-11.57,15.77c-15.66,9.01-40.85,9.01-56.41,0
						c-7.47-4.4-11.26-10.03-11.47-15.77v-167.5H1219.71z"></path>
          </g>
        </g>
      </g>
      <g fill="#000000" class="color000000 svgShape">
        <path fill="#1d6faa" d="M1915.13,1933.29c0,19.17-13.42,42.39-29.92,51.87c-16.53,9.48-29.95,1.66-29.97-17.49
				c0-19.15,13.42-42.39,29.95-51.87C1901.72,1906.32,1915.11,1914.14,1915.13,1933.29z" class="color1fb6ff svgShape"></path>
      </g>
    </g>
  </g>
</svg>
