<svg width="1512" height="881" viewBox="0 0 1512 881" fill="none" xmlns="http://www.w3.org/2000/svg">
<g opacity="0.2">
<g opacity="0.6" filter="url(#filter0_f_58265_21204)">
<path d="M83.6177 223.116C297.195 359.078 593.494 418.861 714.946 431.758C294.508 417.388 -147.534 162.32 -316 36.5824C-271.785 42.1093 -129.96 87.1537 83.6177 223.116Z" fill="url(#paint0_linear_58265_21204)"/>
</g>
<g opacity="0.6" filter="url(#filter1_f_58265_21204)">
<path d="M83.6177 657.4C297.195 521.438 593.494 461.654 714.946 448.758C294.508 463.128 -147.534 718.196 -316 843.933C-271.785 838.406 -129.96 793.362 83.6177 657.4Z" fill="url(#paint1_linear_58265_21204)"/>
</g>
<g opacity="0.3" filter="url(#filter2_f_58265_21204)">
<path d="M615.807 413.558C504.564 409.891 227.734 391.886 10.3594 349.202C85.8996 375.971 312.746 426.32 615.807 413.558Z" fill="url(#paint2_linear_58265_21204)"/>
</g>
<g opacity="0.3" filter="url(#filter3_f_58265_21204)">
<path d="M615.807 466.966C504.564 470.633 227.734 488.638 10.3594 531.322C85.8996 504.552 312.746 454.204 615.807 466.966Z" fill="url(#paint3_linear_58265_21204)"/>
</g>
<g opacity="0.6" filter="url(#filter4_f_58265_21204)">
<path d="M464.855 399.813C313.904 369.193 1.99251 265.49 -38.043 95.6348C-104.768 186.943 -97.6036 375.61 464.855 399.813Z" fill="url(#paint4_linear_58265_21204)"/>
</g>
<g opacity="0.6" filter="url(#filter5_f_58265_21204)">
<path d="M464.855 480.719C313.904 511.338 1.99249 615.041 -38.043 784.896C-104.768 693.588 -97.6036 504.921 464.855 480.719Z" fill="url(#paint5_linear_58265_21204)"/>
</g>
<g filter="url(#filter6_f_58265_21204)">
<path d="M628.167 440.264C629.699 440.369 631.231 440.471 632.762 440.571C626.06 440.755 618.807 441.081 611.06 441.544C346.533 462.963 64.2031 560.114 2.38391 590.868C-2.52656 596.608 -18.7969 602.331 -18.7969 608L-18.7969 272.527C-18.7969 278.196 -2.52655 283.92 2.38393 289.66C64.2031 320.413 346.533 417.564 611.06 438.984C618.807 439.446 626.06 439.773 632.762 439.956C631.231 440.056 629.699 440.159 628.167 440.264Z" fill="url(#paint6_linear_58265_21204)"/>
</g>
<g opacity="0.6" filter="url(#filter7_f_58265_21204)">
<path d="M1427.38 223.116C1213.81 359.078 917.506 418.861 796.054 431.758C1216.49 417.388 1658.53 162.32 1827 36.5824C1782.78 42.1093 1640.96 87.1537 1427.38 223.116Z" fill="url(#paint7_linear_58265_21204)"/>
</g>
<g opacity="0.6" filter="url(#filter8_f_58265_21204)">
<path d="M1427.38 657.4C1213.81 521.438 917.506 461.654 796.054 448.758C1216.49 463.128 1658.53 718.196 1827 843.933C1782.78 838.406 1640.96 793.362 1427.38 657.4Z" fill="url(#paint8_linear_58265_21204)"/>
</g>
<g opacity="0.3" filter="url(#filter9_f_58265_21204)">
<path d="M895.193 413.558C1006.44 409.891 1283.27 391.886 1500.64 349.202C1425.1 375.971 1198.25 426.32 895.193 413.558Z" fill="url(#paint9_linear_58265_21204)"/>
</g>
<g opacity="0.3" filter="url(#filter10_f_58265_21204)">
<path d="M895.193 466.95C1006.44 470.617 1283.27 488.622 1500.64 531.306C1425.1 504.537 1198.25 454.188 895.193 466.95Z" fill="url(#paint10_linear_58265_21204)"/>
</g>
<g opacity="0.6" filter="url(#filter11_f_58265_21204)">
<path d="M1046.14 399.813C1197.09 369.193 1509 265.49 1549.04 95.6348C1615.76 186.943 1608.6 375.61 1046.14 399.813Z" fill="url(#paint11_linear_58265_21204)"/>
</g>
<g opacity="0.6" filter="url(#filter12_f_58265_21204)">
<path d="M1046.14 480.719C1197.09 511.338 1509 615.041 1549.04 784.896C1615.76 693.588 1608.6 504.921 1046.14 480.719Z" fill="url(#paint12_linear_58265_21204)"/>
</g>
<g filter="url(#filter13_f_58265_21204)">
<path d="M882.833 440.264C881.301 440.369 879.769 440.471 878.238 440.571C884.94 440.755 892.193 441.081 899.94 441.544C1164.47 462.963 1446.8 560.114 1508.62 590.868C1513.53 596.608 1529.8 602.331 1529.8 608L1529.8 272.527C1529.8 278.196 1513.53 283.92 1508.62 289.66C1446.8 320.413 1164.47 417.564 899.94 438.984C892.193 439.446 884.94 439.773 878.238 439.956C879.769 440.056 881.301 440.159 882.833 440.264Z" fill="url(#paint13_linear_58265_21204)"/>
</g>
</g>
<defs>
<filter id="filter0_f_58265_21204" x="-352.589" y="-0.00257874" width="1104.12" height="468.349" filterUnits="userSpaceOnUse" color-interpolation-filters="sRGB">
<feFlood flood-opacity="0" result="BackgroundImageFix"/>
<feBlend mode="normal" in="SourceGraphic" in2="BackgroundImageFix" result="shape"/>
<feGaussianBlur stdDeviation="18.2943" result="effect1_foregroundBlur_58265_21204"/>
</filter>
<filter id="filter1_f_58265_21204" x="-352.589" y="412.169" width="1104.12" height="468.349" filterUnits="userSpaceOnUse" color-interpolation-filters="sRGB">
<feFlood flood-opacity="0" result="BackgroundImageFix"/>
<feBlend mode="normal" in="SourceGraphic" in2="BackgroundImageFix" result="shape"/>
<feGaussianBlur stdDeviation="18.2943" result="effect1_foregroundBlur_58265_21204"/>
</filter>
<filter id="filter2_f_58265_21204" x="-17.7856" y="321.058" width="661.735" height="122.681" filterUnits="userSpaceOnUse" color-interpolation-filters="sRGB">
<feFlood flood-opacity="0" result="BackgroundImageFix"/>
<feBlend mode="normal" in="SourceGraphic" in2="BackgroundImageFix" result="shape"/>
<feGaussianBlur stdDeviation="14.0725" result="effect1_foregroundBlur_58265_21204"/>
</filter>
<filter id="filter3_f_58265_21204" x="-17.7856" y="436.785" width="661.735" height="122.681" filterUnits="userSpaceOnUse" color-interpolation-filters="sRGB">
<feFlood flood-opacity="0" result="BackgroundImageFix"/>
<feBlend mode="normal" in="SourceGraphic" in2="BackgroundImageFix" result="shape"/>
<feGaussianBlur stdDeviation="14.0725" result="effect1_foregroundBlur_58265_21204"/>
</filter>
<filter id="filter4_f_58265_21204" x="-94.8559" y="67.4878" width="587.853" height="360.47" filterUnits="userSpaceOnUse" color-interpolation-filters="sRGB">
<feFlood flood-opacity="0" result="BackgroundImageFix"/>
<feBlend mode="normal" in="SourceGraphic" in2="BackgroundImageFix" result="shape"/>
<feGaussianBlur stdDeviation="14.0725" result="effect1_foregroundBlur_58265_21204"/>
</filter>
<filter id="filter5_f_58265_21204" x="-94.8559" y="452.574" width="587.853" height="360.47" filterUnits="userSpaceOnUse" color-interpolation-filters="sRGB">
<feFlood flood-opacity="0" result="BackgroundImageFix"/>
<feBlend mode="normal" in="SourceGraphic" in2="BackgroundImageFix" result="shape"/>
<feGaussianBlur stdDeviation="14.0725" result="effect1_foregroundBlur_58265_21204"/>
</filter>
<filter id="filter6_f_58265_21204" x="-61.0144" y="230.314" width="735.998" height="419.904" filterUnits="userSpaceOnUse" color-interpolation-filters="sRGB">
<feFlood flood-opacity="0" result="BackgroundImageFix"/>
<feBlend mode="normal" in="SourceGraphic" in2="BackgroundImageFix" result="shape"/>
<feGaussianBlur stdDeviation="21.1088" result="effect1_foregroundBlur_58265_21204"/>
</filter>
<filter id="filter7_f_58265_21204" x="759.466" y="-0.00257874" width="1104.12" height="468.349" filterUnits="userSpaceOnUse" color-interpolation-filters="sRGB">
<feFlood flood-opacity="0" result="BackgroundImageFix"/>
<feBlend mode="normal" in="SourceGraphic" in2="BackgroundImageFix" result="shape"/>
<feGaussianBlur stdDeviation="18.2943" result="effect1_foregroundBlur_58265_21204"/>
</filter>
<filter id="filter8_f_58265_21204" x="759.466" y="412.169" width="1104.12" height="468.349" filterUnits="userSpaceOnUse" color-interpolation-filters="sRGB">
<feFlood flood-opacity="0" result="BackgroundImageFix"/>
<feBlend mode="normal" in="SourceGraphic" in2="BackgroundImageFix" result="shape"/>
<feGaussianBlur stdDeviation="18.2943" result="effect1_foregroundBlur_58265_21204"/>
</filter>
<filter id="filter9_f_58265_21204" x="867.05" y="321.058" width="661.735" height="122.681" filterUnits="userSpaceOnUse" color-interpolation-filters="sRGB">
<feFlood flood-opacity="0" result="BackgroundImageFix"/>
<feBlend mode="normal" in="SourceGraphic" in2="BackgroundImageFix" result="shape"/>
<feGaussianBlur stdDeviation="14.0725" result="effect1_foregroundBlur_58265_21204"/>
</filter>
<filter id="filter10_f_58265_21204" x="867.05" y="436.769" width="661.735" height="122.681" filterUnits="userSpaceOnUse" color-interpolation-filters="sRGB">
<feFlood flood-opacity="0" result="BackgroundImageFix"/>
<feBlend mode="normal" in="SourceGraphic" in2="BackgroundImageFix" result="shape"/>
<feGaussianBlur stdDeviation="14.0725" result="effect1_foregroundBlur_58265_21204"/>
</filter>
<filter id="filter11_f_58265_21204" x="1018" y="67.4878" width="587.853" height="360.47" filterUnits="userSpaceOnUse" color-interpolation-filters="sRGB">
<feFlood flood-opacity="0" result="BackgroundImageFix"/>
<feBlend mode="normal" in="SourceGraphic" in2="BackgroundImageFix" result="shape"/>
<feGaussianBlur stdDeviation="14.0725" result="effect1_foregroundBlur_58265_21204"/>
</filter>
<filter id="filter12_f_58265_21204" x="1018" y="452.574" width="587.853" height="360.47" filterUnits="userSpaceOnUse" color-interpolation-filters="sRGB">
<feFlood flood-opacity="0" result="BackgroundImageFix"/>
<feBlend mode="normal" in="SourceGraphic" in2="BackgroundImageFix" result="shape"/>
<feGaussianBlur stdDeviation="14.0725" result="effect1_foregroundBlur_58265_21204"/>
</filter>
<filter id="filter13_f_58265_21204" x="836.017" y="230.314" width="735.998" height="419.904" filterUnits="userSpaceOnUse" color-interpolation-filters="sRGB">
<feFlood flood-opacity="0" result="BackgroundImageFix"/>
<feBlend mode="normal" in="SourceGraphic" in2="BackgroundImageFix" result="shape"/>
<feGaussianBlur stdDeviation="21.1088" result="effect1_foregroundBlur_58265_21204"/>
</filter>
<linearGradient id="paint0_linear_58265_21204" x1="-316" y1="234.17" x2="714.946" y2="234.17" gradientUnits="userSpaceOnUse">
<stop stop-color="#010A10"/>
<stop offset="1" stop-color="#1D6FAA"/>
</linearGradient>
<linearGradient id="paint1_linear_58265_21204" x1="-316" y1="646.346" x2="714.946" y2="646.346" gradientUnits="userSpaceOnUse">
<stop stop-color="#010A10"/>
<stop offset="1" stop-color="#1D6FAA"/>
</linearGradient>
<linearGradient id="paint2_linear_58265_21204" x1="10.3594" y1="382.398" x2="615.807" y2="382.398" gradientUnits="userSpaceOnUse">
<stop stop-color="#010A10"/>
<stop offset="1" stop-color="#1D6FAA"/>
</linearGradient>
<linearGradient id="paint3_linear_58265_21204" x1="10.3594" y1="498.126" x2="615.807" y2="498.126" gradientUnits="userSpaceOnUse">
<stop stop-color="#010A10"/>
<stop offset="1" stop-color="#1D6FAA"/>
</linearGradient>
<linearGradient id="paint4_linear_58265_21204" x1="-66.7109" y1="247.724" x2="464.855" y2="247.724" gradientUnits="userSpaceOnUse">
<stop stop-color="#010A10"/>
<stop offset="1" stop-color="#1D6FAA"/>
</linearGradient>
<linearGradient id="paint5_linear_58265_21204" x1="-66.7109" y1="632.808" x2="464.855" y2="632.808" gradientUnits="userSpaceOnUse">
<stop stop-color="#010A10"/>
<stop offset="1" stop-color="#1D6FAA"/>
</linearGradient>
<linearGradient id="paint6_linear_58265_21204" x1="-5.14279" y1="440.264" x2="632.762" y2="440.264" gradientUnits="userSpaceOnUse">
<stop stop-color="#1D6FAA"/>
<stop offset="1" stop-color="#010A10"/>
</linearGradient>
<linearGradient id="paint7_linear_58265_21204" x1="1827" y1="234.17" x2="796.054" y2="234.17" gradientUnits="userSpaceOnUse">
<stop stop-color="#010A10"/>
<stop offset="1" stop-color="#1D6FAA"/>
</linearGradient>
<linearGradient id="paint8_linear_58265_21204" x1="1827" y1="646.346" x2="796.054" y2="646.346" gradientUnits="userSpaceOnUse">
<stop stop-color="#010A10"/>
<stop offset="1" stop-color="#1D6FAA"/>
</linearGradient>
<linearGradient id="paint9_linear_58265_21204" x1="1500.64" y1="382.398" x2="895.193" y2="382.398" gradientUnits="userSpaceOnUse">
<stop stop-color="#010A10"/>
<stop offset="1" stop-color="#1D6FAA"/>
</linearGradient>
<linearGradient id="paint10_linear_58265_21204" x1="1500.64" y1="498.11" x2="895.193" y2="498.11" gradientUnits="userSpaceOnUse">
<stop stop-color="#010A10"/>
<stop offset="1" stop-color="#1D6FAA"/>
</linearGradient>
<linearGradient id="paint11_linear_58265_21204" x1="1577.7" y1="247.724" x2="1046.14" y2="247.724" gradientUnits="userSpaceOnUse">
<stop stop-color="#010A10"/>
<stop offset="1" stop-color="#1D6FAA"/>
</linearGradient>
<linearGradient id="paint12_linear_58265_21204" x1="1577.7" y1="632.808" x2="1046.14" y2="632.808" gradientUnits="userSpaceOnUse">
<stop stop-color="#010A10"/>
<stop offset="1" stop-color="#1D6FAA"/>
</linearGradient>
<linearGradient id="paint13_linear_58265_21204" x1="1516.14" y1="440.264" x2="878.238" y2="440.264" gradientUnits="userSpaceOnUse">
<stop stop-color="#1D6FAA"/>
<stop offset="1" stop-color="#010A10"/>
</linearGradient>
</defs>
</svg>
